<svg width="22" height="27" viewBox="0 0 22 27" fill="none" xmlns="http://www.w3.org/2000/svg">
<path d="M3.22411 10.8843L3.11475 21.6821L6.97619 25.3637L7.43383 10.9976L3.22411 10.8843Z" fill="url(#paint0_linear_2420_1403)"/>
<path d="M2.06905 11.5012C2.06905 11.5012 2.04574 14.65 1.85913 16.5792H3.86484C3.86484 16.5792 4.02584 14.6337 3.87983 12.8019L2.06905 11.5012Z" fill="url(#paint1_linear_2420_1403)"/>
<path d="M4.03697 15.7593H2.15183C1.86143 15.759 1.58217 15.871 1.37245 16.0719C1.16273 16.2728 1.0388 16.547 1.02656 16.8371C0.980438 17.9411 1.00127 19.6413 1.4585 20.701H3.53849L4.03697 15.7593Z" fill="url(#paint2_linear_2420_1403)"/>
<path d="M3.88254 12.8017C3.84504 12.2348 3.76117 11.6719 3.63178 11.1187L2.06897 11.4673C2.06897 11.4673 2.06468 12.0438 2.04517 12.8545L3.88254 12.8017Z" fill="url(#paint3_linear_2420_1403)"/>
<path d="M1.10254 6.80158C1.10254 6.80158 1.73114 6.44458 2.65374 6.7012C2.92386 6.77907 3.19829 6.84116 3.47562 6.88715C5.62659 7.22327 7.79327 7.44965 9.96726 7.56541C11.2035 7.62305 10.1832 12.1178 10.1832 12.1178L9.1266 12.1948L6.97628 12.1676C6.97628 12.1676 6.27826 12 5.44032 11.886C4.634 11.778 3.81579 11.7963 3.0151 11.9402C2.48241 12.0429 1.93654 12.0582 1.39893 11.9855L1.10254 6.80158Z" fill="url(#paint4_linear_2420_1403)"/>
<path d="M2.49246 9.32227C2.57431 10.7538 2.08473 11.946 1.39889 11.9852C0.969667 12.0099 0.565314 11.5769 0.302773 10.8982L0.0401495 9.81277C0.0262044 9.69885 0.0158003 9.58259 0.00893757 9.464C-0.0729213 8.03246 0.416667 6.84024 1.1025 6.80104C1.78834 6.76184 2.4106 7.89098 2.49246 9.32227Z" fill="url(#paint5_linear_2420_1403)"/>
<path d="M4.17393 7.17598C4.54823 8.10962 5.06532 9.78814 4.85483 11.5587C4.83436 11.7293 4.88185 11.9011 4.98702 12.037C5.0922 12.1728 5.24661 12.2618 5.41689 12.2847L5.90145 12.3497C6.06633 12.3718 6.23344 12.3303 6.3688 12.2336C6.50417 12.1369 6.59763 11.9923 6.63019 11.8292C6.81548 10.9062 6.99996 9.03988 6.07587 7.12328C6.01911 7.00589 5.93478 6.90397 5.8301 6.82622C5.72542 6.74846 5.60348 6.69719 5.4747 6.67676L4.67587 6.54985C4.59533 6.53684 4.51278 6.54542 4.43664 6.57472C4.3605 6.60403 4.29349 6.65301 4.24246 6.71666C4.19143 6.78032 4.1582 6.85638 4.14616 6.93707C4.13412 7.01776 4.14371 7.1002 4.17393 7.17598Z" fill="url(#paint6_linear_2420_1403)"/>
<path d="M13.6017 7.54541C12.5277 7.6167 11.4506 7.62905 10.3752 7.58239C10.6438 8.30767 11.1953 10.3652 10.2961 12.1095L14.4282 11.8083C15.3024 8.97308 13.6017 7.54541 13.6017 7.54541Z" fill="url(#paint7_linear_2420_1403)"/>
<path d="M5.48758 19.2592L2.32399 22.5482L1.15302 21.1296C1.03024 20.9808 0.962342 20.7944 0.960723 20.6015C0.959104 20.4086 1.02386 20.221 1.14412 20.0703L2.77249 18.0291L5.48758 19.2592Z" fill="url(#paint8_linear_2420_1403)"/>
<path d="M5.48756 19.2592L3.92919 16.5791L2.77246 18.0291L4.77759 19.9972L5.48756 19.2592Z" fill="#D57370"/>
<path d="M16.9394 10.8842L17.7074 10.7748C17.3135 9.67096 16.852 8.59245 16.3254 7.54539L18.1841 6.00342C18.1841 6.00342 20.4319 8.64349 21.6638 11.8081L17.2116 14.4759L16.9394 10.8842Z" fill="url(#paint9_linear_2420_1403)"/>
<path d="M18.1841 6.00342L16.3254 7.54523C16.4003 7.69183 16.4736 7.83928 16.5451 7.98755L19.4225 7.66135C18.7257 6.64017 18.1841 6.00342 18.1841 6.00342Z" fill="#D57370"/>
<path d="M9.58283 11.7178L6.66012 12.2222L3.11475 16.2135L5.48758 19.2592L6.61541 18.3318V24.3744H13.8322C14.0476 24.2702 14.2356 24.1169 14.381 23.9268C14.491 23.7757 14.5569 23.597 14.5713 23.4106C14.5857 23.2242 14.5481 23.0375 14.4627 22.8712L14.3435 22.633C14.2176 22.3815 14.152 22.1041 14.152 21.8229V16.4541L17.7073 14.8318L16.9393 10.885L11.692 11.6324L9.58283 11.7178Z" fill="url(#paint10_linear_2420_1403)"/>
<path d="M9.12646 10.3782V12.1948C9.12646 12.1948 9.29339 12.9103 10.3522 13.5112L10.8402 16.0882L11.3202 13.8833C11.3728 13.6284 11.5178 13.4019 11.7273 13.2475C11.7356 13.2418 11.7432 13.236 11.751 13.2302C11.972 13.0665 12.1199 12.8226 12.1628 12.5509C12.2057 12.2793 12.1403 12.0016 11.9806 11.7778L9.12646 10.3782Z" fill="url(#paint11_linear_2420_1403)"/>
<path d="M9.12646 8.76562V10.3781C9.90795 11.1094 10.8946 11.5841 11.9537 11.7382C11.7715 11.4614 11.6218 10.949 11.8117 10.0198L9.12646 8.76562Z" fill="#D57370"/>
<path d="M13.8323 4.24192C13.8323 4.24192 15.2051 4.06486 15.2438 2.03247L14.2959 2.14851C14.2959 2.14851 15.032 1.25605 14.5378 0C14.5378 0 13.9254 0.856471 12.5379 1.21059C12.0882 1.32058 11.6227 1.35066 11.1626 1.29945C10.4968 1.22932 9.82367 1.28296 9.17733 1.45765C7.66269 1.88909 6.65378 3.35588 6.88964 4.91301C6.99506 5.60889 7.3514 6.36061 8.22187 6.98444L9.49834 7.54542L13.8323 4.24192Z" fill="url(#paint12_linear_2420_1403)"/>
<path d="M13.8323 4.24199L13.6464 7.77567C13.6256 8.22542 13.5377 8.66954 13.3856 9.09332C13.3038 9.32168 13.1981 9.54077 13.0703 9.74695C12.9445 9.94281 12.7633 10.0969 12.5498 10.1896C12.3363 10.2823 12.1 10.3096 11.871 10.2678C11.0236 10.1227 10.2104 9.82229 9.47222 9.38164C9.36677 9.31714 9.27961 9.22669 9.21906 9.11892C9.15851 9.01115 9.12659 8.88966 9.12634 8.76605V8.33781C9.12634 8.33781 8.15976 8.49041 7.93082 7.52384C7.85539 7.27229 7.83062 7.00827 7.85794 6.74708C7.93296 5.98211 8.99441 5.83536 9.25901 6.5571C9.28913 6.64 9.3128 6.7251 9.32983 6.81165C9.38941 6.77842 9.44613 6.7403 9.4994 6.69767C9.6859 6.54952 9.83626 6.36089 9.93908 6.14605C10.0419 5.9312 10.0945 5.69578 10.0929 5.4576V5.24727C10.0929 5.09455 10.1239 4.94341 10.184 4.80302C10.2441 4.66263 10.3321 4.5359 10.4427 4.43052C10.5532 4.32514 10.684 4.2433 10.8271 4.18996C10.9702 4.13661 11.1226 4.11288 11.2752 4.12019L13.8323 4.24199Z" fill="url(#paint13_linear_2420_1403)"/>
<path d="M6.45689 11.968C6.34185 12.0154 6.24452 12.0976 6.17851 12.2031C6.1125 12.3086 6.08113 12.4321 6.08877 12.5563C6.14873 13.661 6.29993 16.8448 6.16619 18.7011C6.16619 18.7011 6.12254 19.5125 6.6155 19.71C6.6155 19.71 8.33964 18.3727 7.73666 12.1953C7.72687 12.0918 7.67964 11.9954 7.60382 11.9243C7.528 11.8531 7.42882 11.8121 7.32489 11.8089C7.02773 11.8021 6.73232 11.8562 6.45689 11.968Z" fill="url(#paint14_linear_2420_1403)"/>
<path d="M11.8787 11.6052C11.8787 11.6052 14.0891 15.0028 14.1522 18.9965C14.1522 18.9965 15.1062 18.5682 15.2969 17.2341C15.3312 16.9769 15.3337 16.7164 15.3043 16.4586C15.21 15.5543 14.7977 12.8053 13.1878 11.3299C13.1193 11.2666 13.0383 11.2184 12.95 11.1883C12.8618 11.1581 12.7682 11.1468 12.6753 11.1549C12.5171 11.1649 12.3632 11.2106 12.2253 11.2886C12.0873 11.3666 11.9688 11.4749 11.8787 11.6052Z" fill="url(#paint15_linear_2420_1403)"/>
<path d="M6.61548 24.3745H10.8403V26.353H6.61548V24.3745Z" fill="url(#paint16_linear_2420_1403)"/>
<path d="M14.2414 25.1397V25.5878C14.2414 26.0105 13.9485 26.353 13.587 26.353H12.6284V24.3745H13.587C13.948 24.3745 14.2414 24.7172 14.2414 25.1397Z" fill="url(#paint17_linear_2420_1403)"/>
<path d="M10.6516 24.3745H12.7388V26.353H10.6516V24.3745Z" fill="url(#paint18_linear_2420_1403)"/>
<path d="M3.79403 21.0198L1.4585 23.2972L4.59812 25.001V25.3133C4.59812 25.5891 4.70766 25.8535 4.90264 26.0485C5.09762 26.2435 5.36208 26.353 5.63783 26.353H6.61535V25.1067C6.61522 24.6116 6.46326 24.1284 6.17995 23.7224C5.65182 22.9648 4.7172 21.7284 3.79403 21.0198Z" fill="url(#paint19_linear_2420_1403)"/>
<path d="M11.2845 7.10727C11.4579 7.10727 11.5985 6.96668 11.5985 6.79326C11.5985 6.61984 11.4579 6.47925 11.2845 6.47925C11.111 6.47925 10.9705 6.61984 10.9705 6.79326C10.9705 6.96668 11.111 7.10727 11.2845 7.10727Z" fill="#D57370"/>
<path d="M12.5696 7.10727C12.7431 7.10727 12.8836 6.96668 12.8836 6.79326C12.8836 6.61984 12.7431 6.47925 12.5696 6.47925C12.3962 6.47925 12.2556 6.61984 12.2556 6.79326C12.2556 6.96668 12.3962 7.10727 12.5696 7.10727Z" fill="#D57370"/>
<path d="M9.26885 14.7166C9.44227 14.7166 9.58286 14.5761 9.58286 14.4026C9.58286 14.2292 9.44227 14.0886 9.26885 14.0886C9.09542 14.0886 8.95483 14.2292 8.95483 14.4026C8.95483 14.5761 9.09542 14.7166 9.26885 14.7166Z" fill="#BCA39C"/>
<path d="M9.50224 15.8333C9.67567 15.8333 9.81626 15.6928 9.81626 15.5193C9.81626 15.3459 9.67567 15.2053 9.50224 15.2053C9.32882 15.2053 9.18823 15.3459 9.18823 15.5193C9.18823 15.6928 9.32882 15.8333 9.50224 15.8333Z" fill="#BCA39C"/>
<path d="M12.1997 4.16414C12.1997 4.16414 12.0802 5.69797 13.7356 6.07827L13.8322 4.2418L12.1997 4.16414Z" fill="#D57370"/>
<path d="M16.3255 7.54551C15.7857 6.83706 15.2072 6.159 14.5925 5.51444C14.4417 5.36136 14.262 5.23979 14.0638 5.15681C13.8655 5.07384 13.6528 5.03111 13.4379 5.03111H13.2683C13.125 5.03113 12.983 5.00289 12.8505 4.94803C12.7181 4.89317 12.5977 4.81276 12.4963 4.71138C12.3949 4.61 12.3145 4.48964 12.2596 4.35718C12.2048 4.22471 12.1765 4.08274 12.1765 3.93936C12.1765 3.76463 12.2459 3.59706 12.3695 3.4735C12.493 3.34995 12.6606 3.28054 12.8353 3.28054H14.9908C15.5316 3.27881 16.0669 3.38927 16.5628 3.60493C17.2884 3.92355 18.3175 4.51031 19.1423 5.5081L16.3255 7.54551Z" fill="url(#paint20_linear_2420_1403)"/>
<path d="M1.80526 10.0176C1.80526 10.0176 2.24889 8.33955 1.37019 7.90522C0.872116 7.65907 0.654375 8.06927 0.559669 8.44323C0.47142 8.77719 0.496237 9.13097 0.630246 9.44934C0.638481 9.46869 0.647951 9.48796 0.657504 9.50699C0.691928 9.57526 0.778481 9.54289 0.776998 9.4626C0.771075 9.26202 0.785867 9.06136 0.821139 8.86381C0.884222 8.54898 1.21643 8.46572 1.38032 8.71953C1.40172 8.75219 1.41836 8.78774 1.42973 8.82511C1.48076 8.99724 1.50395 9.17642 1.49841 9.35587C1.49383 9.59353 1.46265 9.82993 1.40543 10.0606C1.28314 10.5278 0.788693 10.6463 0.526975 10.2757C0.427919 10.1336 0.350229 9.97784 0.296387 9.81326C0.32996 10.1812 0.400424 10.5448 0.506716 10.8987C0.56789 10.9434 0.633319 10.982 0.702057 11.014C1.43549 11.3517 1.80526 10.0176 1.80526 10.0176Z" fill="url(#paint21_linear_2420_1403)"/>
<defs>
<linearGradient id="paint0_linear_2420_1403" x1="5.09468" y1="7.25004" x2="5.35705" y2="20.528" gradientUnits="userSpaceOnUse">
<stop stop-color="#4B717B"/>
<stop offset="1" stop-color="#3A586E"/>
</linearGradient>
<linearGradient id="paint1_linear_2420_1403" x1="3.14606" y1="8.23271" x2="2.68843" y2="22.2542" gradientUnits="userSpaceOnUse">
<stop stop-color="#759AA9"/>
<stop offset="1" stop-color="#4B717B"/>
</linearGradient>
<linearGradient id="paint2_linear_2420_1403" x1="3.14599" y1="8.23271" x2="2.68836" y2="22.2542" gradientUnits="userSpaceOnUse">
<stop stop-color="#759AA9"/>
<stop offset="1" stop-color="#4B717B"/>
</linearGradient>
<linearGradient id="paint3_linear_2420_1403" x1="5.09461" y1="7.2502" x2="5.35699" y2="20.5281" gradientUnits="userSpaceOnUse">
<stop stop-color="#4B717B"/>
<stop offset="1" stop-color="#3A586E"/>
</linearGradient>
<linearGradient id="paint4_linear_2420_1403" x1="3.14613" y1="8.23263" x2="2.68849" y2="22.2541" gradientUnits="userSpaceOnUse">
<stop stop-color="#759AA9"/>
<stop offset="1" stop-color="#4B717B"/>
</linearGradient>
<linearGradient id="paint5_linear_2420_1403" x1="5.09473" y1="7.25003" x2="5.3571" y2="20.528" gradientUnits="userSpaceOnUse">
<stop stop-color="#4B717B"/>
<stop offset="1" stop-color="#3A586E"/>
</linearGradient>
<linearGradient id="paint6_linear_2420_1403" x1="5.09472" y1="7.25018" x2="5.3571" y2="20.5281" gradientUnits="userSpaceOnUse">
<stop stop-color="#4B717B"/>
<stop offset="1" stop-color="#3A586E"/>
</linearGradient>
<linearGradient id="paint7_linear_2420_1403" x1="5.09481" y1="7.25001" x2="5.35719" y2="20.5279" gradientUnits="userSpaceOnUse">
<stop stop-color="#4B717B"/>
<stop offset="1" stop-color="#3A586E"/>
</linearGradient>
<linearGradient id="paint8_linear_2420_1403" x1="3.24569" y1="18.5079" x2="3.18137" y2="22.7249" gradientUnits="userSpaceOnUse">
<stop stop-color="#EDCFC9"/>
<stop offset="1" stop-color="#ECA397"/>
</linearGradient>
<linearGradient id="paint9_linear_2420_1403" x1="3.24573" y1="18.5079" x2="3.18142" y2="22.7249" gradientUnits="userSpaceOnUse">
<stop stop-color="#EDCFC9"/>
<stop offset="1" stop-color="#ECA397"/>
</linearGradient>
<linearGradient id="paint10_linear_2420_1403" x1="10.3989" y1="12.8979" x2="10.4471" y2="23.2814" gradientUnits="userSpaceOnUse">
<stop stop-color="#EDE5DC"/>
<stop offset="1" stop-color="#DDC1BA"/>
</linearGradient>
<linearGradient id="paint11_linear_2420_1403" x1="3.24564" y1="18.508" x2="3.18132" y2="22.7249" gradientUnits="userSpaceOnUse">
<stop stop-color="#EDCFC9"/>
<stop offset="1" stop-color="#ECA397"/>
</linearGradient>
<linearGradient id="paint12_linear_2420_1403" x1="12.7524" y1="3.72499" x2="5.2817" y2="4.21145" gradientUnits="userSpaceOnUse">
<stop stop-color="#535365"/>
<stop offset="1" stop-color="#39394C"/>
</linearGradient>
<linearGradient id="paint13_linear_2420_1403" x1="3.24576" y1="18.5081" x2="3.18144" y2="22.725" gradientUnits="userSpaceOnUse">
<stop stop-color="#EDCFC9"/>
<stop offset="1" stop-color="#ECA397"/>
</linearGradient>
<linearGradient id="paint14_linear_2420_1403" x1="12.7523" y1="3.72492" x2="5.28163" y2="4.21138" gradientUnits="userSpaceOnUse">
<stop stop-color="#535365"/>
<stop offset="1" stop-color="#39394C"/>
</linearGradient>
<linearGradient id="paint15_linear_2420_1403" x1="12.7523" y1="3.72493" x2="5.2817" y2="4.21139" gradientUnits="userSpaceOnUse">
<stop stop-color="#535365"/>
<stop offset="1" stop-color="#39394C"/>
</linearGradient>
<linearGradient id="paint16_linear_2420_1403" x1="12.7523" y1="3.72509" x2="5.28161" y2="4.21155" gradientUnits="userSpaceOnUse">
<stop stop-color="#535365"/>
<stop offset="1" stop-color="#39394C"/>
</linearGradient>
<linearGradient id="paint17_linear_2420_1403" x1="12.7524" y1="3.7251" x2="5.28171" y2="4.21155" gradientUnits="userSpaceOnUse">
<stop stop-color="#535365"/>
<stop offset="1" stop-color="#39394C"/>
</linearGradient>
<linearGradient id="paint18_linear_2420_1403" x1="10.8108" y1="23.6435" x2="13.1822" y2="28.2561" gradientUnits="userSpaceOnUse">
<stop stop-color="#EDB352"/>
<stop offset="0.532" stop-color="#E8913D"/>
<stop offset="1" stop-color="#E5782E"/>
</linearGradient>
<linearGradient id="paint19_linear_2420_1403" x1="1.4585" y1="23.6864" x2="6.61544" y2="23.6864" gradientUnits="userSpaceOnUse">
<stop stop-color="#C6766C"/>
<stop offset="1" stop-color="#8B4636"/>
</linearGradient>
<linearGradient id="paint20_linear_2420_1403" x1="1.45869" y1="23.6863" x2="6.61563" y2="23.6863" gradientUnits="userSpaceOnUse">
<stop stop-color="#C6766C"/>
<stop offset="1" stop-color="#8B4636"/>
</linearGradient>
<linearGradient id="paint21_linear_2420_1403" x1="3.14613" y1="8.23274" x2="2.68849" y2="22.2542" gradientUnits="userSpaceOnUse">
<stop stop-color="#759AA9"/>
<stop offset="1" stop-color="#4B717B"/>
</linearGradient>
</defs>
</svg>
