<svg width="33" height="33" viewBox="0 0 33 33" fill="none" xmlns="http://www.w3.org/2000/svg">
<path fill-rule="evenodd" clip-rule="evenodd" d="M28.0117 15.3461V24.4822C28.0136 25.2058 27.4359 25.7978 26.7124 25.8134C22.9455 25.7436 19.2352 26.7366 16.0067 28.6786C12.7781 26.7366 9.06778 25.7436 5.30086 25.8134C4.57742 25.7978 3.99968 25.2058 4.00162 24.4822V15.3461C3.99839 14.7942 4.22382 14.2655 4.62439 13.8858C5.02496 13.5061 5.56489 13.3092 6.11587 13.3419C9.59328 13.4526 12.99 14.4172 16.0067 16.1506C19.0233 14.4172 22.42 13.4526 25.8974 13.3419C26.4484 13.3092 26.9883 13.5061 27.3889 13.8858C27.7895 14.2655 28.0149 14.7942 28.0117 15.3461V15.3461Z" stroke="#1A1A1A" stroke-width="1.5" stroke-linecap="round" stroke-linejoin="round"/>
<path d="M16.0067 16.1506V28.6786" stroke="#1A1A1A" stroke-width="1.5" stroke-linecap="round" stroke-linejoin="round"/>
<circle cx="16.0067" cy="7.33638" r="4.00167" stroke="#1A1A1A" stroke-width="1.5" stroke-linecap="round" stroke-linejoin="round"/>
</svg>
