<svg width="27" height="26" viewBox="0 0 27 26" fill="none" xmlns="http://www.w3.org/2000/svg">
<path d="M13.0977 23.5347C13.6027 17.6117 13.8906 12.0347 13.0977 8.18099C13.0977 8.18099 6.87656 5.05043 0.47057 7.95666C0.329691 8.02141 0.210416 8.12532 0.126978 8.256C0.0435396 8.38667 -0.000538036 8.5386 4.95699e-06 8.69364V23.5347H13.0977Z" fill="#A5B4DB"/>
<path d="M13.0977 23.5347C13.4934 17.0983 13.8725 10.3608 14.473 7.6356C16.6741 6.89171 21.2094 5.87374 25.8034 7.95678C25.9443 8.02152 26.0636 8.12544 26.147 8.25614C26.2305 8.38683 26.2746 8.53877 26.274 8.69384V23.5347H13.0977Z" fill="#F5FBFF"/>
<path d="M14.4732 7.63574C14.0041 7.78932 13.5448 7.97141 13.0979 8.181V23.5347H14.4732V7.63574Z" fill="#A5B4DB"/>
<path d="M12.3705 23.221C10.4928 22.4857 5.25873 20.9042 0 23.5348V25.9669C6.00114 24.2631 10.6993 25.2531 12.4043 25.7426C12.8578 25.8728 13.3387 25.8736 13.7926 25.7447C15.5119 25.2559 20.2643 24.2606 26.2742 25.967V23.5348C21.0091 20.901 15.7184 22.4896 13.8262 23.2237C13.3578 23.4054 12.8382 23.4044 12.3705 23.221Z" fill="#626DA0"/>
<path d="M12.1818 22.2745C10.8989 20.77 8.19464 18.3754 3.614 17.7262C3.39518 17.6962 3.19459 17.5881 3.04918 17.4218C2.90378 17.2555 2.82336 17.0423 2.82275 16.8215V3.05395C2.82268 2.958 2.84291 2.86311 2.8821 2.77553C2.9213 2.68794 2.97857 2.60964 3.05017 2.54576C3.12177 2.48187 3.20607 2.43386 3.29754 2.40486C3.389 2.37586 3.48557 2.36654 3.5809 2.3775C10.6632 3.21067 13.0977 8.181 13.0977 8.181V21.9351C13.0978 22.0415 13.0653 22.1454 13.0046 22.2328C12.9439 22.3202 12.8578 22.3869 12.758 22.4239C12.6582 22.4609 12.5495 22.4664 12.4465 22.4397C12.3434 22.4129 12.2511 22.3553 12.1818 22.2745Z" fill="#F5FBFF"/>
<path d="M5.807 13.8431C6.47542 14.0487 7.10858 14.3551 7.68464 14.7516V12.5158C7.1108 12.1129 6.47718 11.8027 5.807 11.5966V13.8431ZM5.74334 5.69517C5.83294 5.71543 6.05941 5.77019 6.08379 5.77019C6.15383 5.77019 6.22148 5.74469 6.2741 5.69844C6.32671 5.6522 6.36068 5.58838 6.36966 5.51891C6.37864 5.44944 6.36201 5.37908 6.32289 5.32097C6.28377 5.26287 6.22482 5.221 6.15708 5.20319C6.06232 5.17816 5.96684 5.15474 5.87066 5.13294C5.7963 5.1166 5.7185 5.13033 5.65424 5.17115C5.58998 5.21197 5.54447 5.27655 5.52766 5.3508C5.51084 5.42505 5.52408 5.50293 5.56449 5.56745C5.6049 5.63197 5.6692 5.67788 5.74334 5.69517ZM7.72121 6.40851C9.57646 7.23154 10.8996 8.66119 10.9127 8.67552C10.9695 8.7221 11.0399 8.74902 11.1134 8.75224C11.1868 8.75546 11.2593 8.73482 11.32 8.69339C11.3487 8.6684 11.3721 8.6378 11.3887 8.60348C11.4053 8.56915 11.4147 8.53181 11.4164 8.49373C11.4181 8.45565 11.412 8.41762 11.3985 8.38196C11.385 8.3463 11.3644 8.31376 11.338 8.28632C11.2812 8.22423 9.92407 6.75505 7.95501 5.88161C7.9204 5.86626 7.88311 5.85788 7.84526 5.85694C7.80741 5.856 7.76975 5.86252 7.73443 5.87614C7.6991 5.88975 7.6668 5.9102 7.63937 5.93629C7.61195 5.96239 7.58993 5.99364 7.57458 6.02824C7.55923 6.06285 7.55084 6.10014 7.5499 6.13799C7.54896 6.17584 7.55549 6.2135 7.5691 6.24883C7.58272 6.28415 7.60316 6.31645 7.62926 6.34388C7.65536 6.3713 7.6866 6.39332 7.72121 6.40867V6.40851ZM5.74334 7.82473C8.64463 8.48199 10.894 10.7884 10.9178 10.8101C10.9438 10.8379 10.975 10.8602 11.0098 10.8756C11.0445 10.8911 11.082 10.8994 11.12 10.9001C11.158 10.9008 11.1958 10.8938 11.231 10.8797C11.2663 10.8655 11.2984 10.8443 11.3253 10.8175C11.3784 10.7634 11.4088 10.6911 11.4102 10.6153C11.4116 10.5396 11.3839 10.4661 11.3329 10.4101C11.2369 10.3103 8.9439 7.95872 5.87074 7.26251C5.79618 7.24561 5.71797 7.25903 5.65331 7.2998C5.58864 7.34057 5.54282 7.40536 5.52593 7.47992C5.50903 7.55448 5.52245 7.63269 5.56322 7.69735C5.60399 7.76202 5.66878 7.80784 5.74334 7.82473ZM5.74334 9.95397C8.64463 10.6112 10.8954 12.9161 10.9178 12.9393C10.975 12.9863 11.0463 13.0125 11.1203 13.0139C11.1942 13.0152 11.2665 12.9916 11.3253 12.9468C11.3534 12.921 11.3759 12.8898 11.3915 12.855C11.4072 12.8203 11.4156 12.7828 11.4163 12.7447C11.417 12.7066 11.41 12.6688 11.3956 12.6335C11.3813 12.5982 11.3599 12.5662 11.3329 12.5394C11.2369 12.4395 8.9439 10.088 5.87074 9.39174C5.83382 9.38338 5.79562 9.38237 5.75831 9.38876C5.72101 9.39516 5.68532 9.40885 5.65331 9.42904C5.62129 9.44923 5.59356 9.47552 5.5717 9.50643C5.54985 9.53733 5.53429 9.57224 5.52593 9.60915C5.51756 9.64607 5.51655 9.68427 5.52295 9.72158C5.52935 9.75889 5.54303 9.79457 5.56322 9.82659C5.58341 9.85861 5.60971 9.88634 5.64061 9.90819C5.67152 9.93005 5.70642 9.9456 5.74334 9.95397ZM9.24424 13.0016C9.17753 12.9658 9.09939 12.9576 9.02673 12.9789C8.95406 13.0003 8.8927 13.0493 8.85591 13.1155C8.81913 13.1817 8.80987 13.2597 8.83014 13.3327C8.85041 13.4057 8.89858 13.4677 8.96424 13.5054C9.99036 14.0761 10.9051 15.0547 10.9142 15.0645C10.971 15.1257 11.1827 15.2025 11.3215 15.0797C11.3495 15.0541 11.3722 15.0233 11.3882 14.9889C11.4041 14.9545 11.4131 14.9172 11.4145 14.8793C11.4159 14.8414 11.4098 14.8036 11.3965 14.7681C11.3831 14.7326 11.3629 14.7001 11.3368 14.6725C11.297 14.6297 10.3522 13.6175 9.24424 13.0016ZM11.3214 17.2089C11.3492 17.1833 11.3717 17.1524 11.3876 17.118C11.4034 17.0836 11.4123 17.0464 11.4137 17.0085C11.4151 16.9707 11.4091 16.9329 11.3958 16.8975C11.3826 16.862 11.3625 16.8295 11.3367 16.8018C11.297 16.759 10.3522 15.7469 9.24416 15.1308C9.17745 15.095 9.09931 15.0869 9.02664 15.1082C8.95398 15.1295 8.89262 15.1786 8.85583 15.2447C8.81904 15.3109 8.80979 15.389 8.83006 15.4619C8.85033 15.5349 8.8985 15.5969 8.96416 15.6347C9.99028 16.2052 10.9051 17.184 10.9141 17.1938C10.9712 17.255 11.1865 17.3316 11.3214 17.2089Z" fill="#A5B4DB"/>
<path d="M24.2053 13.3583C24.1044 9.44427 19.7275 9.79418 19.7275 9.79418C19.7275 9.79418 15.3506 9.44427 15.2497 13.3583C15.1832 15.9381 17.1281 16.8268 18.4759 17.1329H20.979C22.327 16.8268 24.272 15.9381 24.2053 13.3583Z" fill="#FFBB69"/>
<path d="M16.2596 9.66234C16.2596 9.66234 16.419 5.39052 14.2034 3.29687L14.4834 2.81049C14.4834 2.81049 16.9363 3.52927 18.0782 5.53868C18.0782 5.53868 18.1628 2.09163 21.06 0.88623L21.335 1.26687C21.335 1.26687 20.1507 3.29703 21.1867 5.43294C21.1867 5.43294 22.1596 3.25478 24.7395 2.85298L25.0356 3.29703C25.0356 3.29703 22.7305 5.58101 23.1744 9.51468L16.2596 9.66234Z" fill="#B0CCFF"/>
<path d="M23.1716 9.41318C22.0459 9.1256 20.8896 8.97499 19.7278 8.9646C18.5659 8.97503 17.4096 9.1257 16.2839 9.41334C16.1413 9.4499 16.0167 9.53641 15.9325 9.65715C15.8484 9.77788 15.8104 9.9248 15.8255 10.0712C15.8342 10.1575 15.8611 10.241 15.9045 10.3162C15.9478 10.3914 16.0066 10.4566 16.0769 10.5074C16.1473 10.5583 16.2276 10.5936 16.3126 10.6111C16.3976 10.6287 16.4853 10.628 16.57 10.6092C17.8686 10.3204 21.5869 10.3204 22.8854 10.6092C22.9702 10.628 23.0579 10.6287 23.1429 10.6111C23.2279 10.5936 23.3083 10.5583 23.3786 10.5074C23.449 10.4566 23.5077 10.3914 23.5511 10.3162C23.5944 10.2411 23.6214 10.1575 23.6301 10.0712C23.6452 9.92477 23.6072 9.77781 23.523 9.65705C23.4389 9.53629 23.3142 9.44975 23.1716 9.41318Z" fill="#758FDF"/>
<path d="M13.9313 3.66752C14.482 3.66752 14.9285 3.22105 14.9285 2.67031C14.9285 2.11956 14.482 1.6731 13.9313 1.6731C13.3805 1.6731 12.9341 2.11956 12.9341 2.67031C12.9341 3.22105 13.3805 3.66752 13.9313 3.66752Z" fill="#758FDF"/>
<path d="M21.2287 1.99442C21.7794 1.99442 22.2259 1.54796 22.2259 0.997212C22.2259 0.446467 21.7794 0 21.2287 0C20.6779 0 20.2314 0.446467 20.2314 0.997212C20.2314 1.54796 20.6779 1.99442 21.2287 1.99442Z" fill="#758FDF"/>
<path d="M25.2357 3.77811C25.7865 3.77811 26.2329 3.33165 26.2329 2.7809C26.2329 2.23016 25.7865 1.78369 25.2357 1.78369C24.685 1.78369 24.2385 2.23016 24.2385 2.7809C24.2385 3.33165 24.685 3.77811 25.2357 3.77811Z" fill="#758FDF"/>
<path d="M19.7279 13.8636C18.5904 13.8636 17.9237 13.5506 17.6088 13.3448C17.5792 13.3256 17.5458 13.3133 17.5109 13.3087C17.4759 13.3041 17.4404 13.3073 17.4069 13.318C17.3733 13.3288 17.3426 13.3469 17.3169 13.3709C17.2912 13.395 17.2711 13.4245 17.2582 13.4573C16.7935 14.6011 16.9609 15.4631 17.3735 16.1001H22.0828C22.4952 15.4631 22.6625 14.6013 22.1981 13.4573C22.1852 13.4245 22.1651 13.395 22.1394 13.3709C22.1137 13.3469 22.083 13.3288 22.0494 13.318C22.0159 13.3073 21.9804 13.3041 21.9454 13.3087C21.9105 13.3133 21.877 13.3256 21.8475 13.3448C21.5321 13.5504 20.8654 13.8636 19.7279 13.8636Z" fill="#525263"/>
<path d="M19.7278 14.9885C19.2776 14.9881 18.8329 15.0876 18.4259 15.2798C18.0188 15.4721 17.6594 15.7523 17.3738 16.1003C17.6605 16.5217 18.0371 16.8744 18.4763 17.133C18.8871 17.2286 19.3065 17.2825 19.7281 17.2938C20.1497 17.2825 20.5691 17.2286 20.9798 17.133C21.4191 16.8744 21.7956 16.5217 22.0823 16.1003C21.7966 15.7523 21.4372 15.472 21.03 15.2797C20.6229 15.0875 20.1781 14.988 19.7278 14.9885Z" fill="#FF5F89"/>
<path d="M18.9961 12.5798C18.922 12.5799 18.8508 12.5514 18.7973 12.5003C18.4888 12.2238 18.0997 12.0537 17.6872 12.0151C17.6108 12.0117 17.5389 11.9781 17.4874 11.9217C17.4358 11.8652 17.4087 11.7906 17.4122 11.7143C17.4156 11.6379 17.4492 11.566 17.5056 11.5145C17.5621 11.4629 17.6367 11.4358 17.713 11.4393C18.2649 11.4833 18.7864 11.7098 19.1954 12.083C19.2371 12.1228 19.2659 12.1741 19.2781 12.2304C19.2904 12.2867 19.2855 12.3453 19.264 12.3988C19.2426 12.4523 19.2057 12.4981 19.1579 12.5304C19.1102 12.5626 19.0539 12.5799 18.9963 12.5798H18.9961ZM20.4592 12.5798C20.4016 12.5799 20.3453 12.5626 20.2976 12.5303C20.2499 12.4981 20.213 12.4522 20.1915 12.3988C20.1701 12.3453 20.1652 12.2866 20.1775 12.2304C20.1897 12.1741 20.2185 12.1228 20.2602 12.083C20.6692 11.7098 21.1907 11.4833 21.7426 11.4393C21.8189 11.4358 21.8935 11.4629 21.95 11.5145C22.0064 11.566 22.04 11.6379 22.0434 11.7143C22.0469 11.7906 22.0198 11.8652 21.9682 11.9217C21.9167 11.9781 21.8448 12.0117 21.7684 12.0151C21.3559 12.0537 20.9667 12.2238 20.6582 12.5003C20.6046 12.5515 20.5333 12.58 20.4592 12.5798Z" fill="#525263"/>
</svg>
