<svg width="25" height="25" viewBox="0 0 25 25" fill="none" xmlns="http://www.w3.org/2000/svg">
<rect x="3.00122" y="3.00122" width="18.0075" height="18.0075" rx="3" stroke="#1A1A1A" stroke-width="1.5" stroke-linecap="round" stroke-linejoin="round"/>
<path d="M21.0087 8.00338H3.00122" stroke="#1A1A1A" stroke-width="1.5" stroke-linecap="round" stroke-linejoin="round"/>
<path d="M17.3072 11.5048C17.3072 11.5325 17.2848 11.5549 17.2572 11.5549C17.2295 11.5549 17.2071 11.5325 17.2071 11.5048C17.2071 11.4772 17.2295 11.4548 17.2572 11.4548" stroke="#1A1A1A" stroke-width="1.5" stroke-linecap="round" stroke-linejoin="round"/>
<path d="M17.2572 11.4548C17.2848 11.4548 17.3072 11.4772 17.3072 11.5048" stroke="#1A1A1A" stroke-width="1.5" stroke-linecap="round" stroke-linejoin="round"/>
<path d="M13.8047 11.5048C13.8047 11.5325 13.7824 11.5549 13.7547 11.5549C13.7271 11.5549 13.7047 11.5325 13.7047 11.5048C13.7047 11.4772 13.7271 11.4548 13.7547 11.4548" stroke="#1A1A1A" stroke-width="1.5" stroke-linecap="round" stroke-linejoin="round"/>
<path d="M13.7547 11.4548C13.7824 11.4548 13.8048 11.4772 13.8048 11.5048" stroke="#1A1A1A" stroke-width="1.5" stroke-linecap="round" stroke-linejoin="round"/>
<path d="M10.3033 11.5048C10.3033 11.5325 10.2809 11.5549 10.2533 11.5549C10.2256 11.5549 10.2032 11.5325 10.2032 11.5048C10.2032 11.4772 10.2256 11.4548 10.2533 11.4548" stroke="#1A1A1A" stroke-width="1.5" stroke-linecap="round" stroke-linejoin="round"/>
<path d="M10.2533 11.4548C10.2809 11.4548 10.3033 11.4772 10.3033 11.5048" stroke="#1A1A1A" stroke-width="1.5" stroke-linecap="round" stroke-linejoin="round"/>
<path d="M6.80182 14.5061C6.80182 14.5337 6.77942 14.5561 6.7518 14.5561C6.72417 14.5561 6.70177 14.5337 6.70177 14.5061C6.70177 14.4784 6.72417 14.456 6.7518 14.456" stroke="#1A1A1A" stroke-width="1.5" stroke-linecap="round" stroke-linejoin="round"/>
<path d="M6.75181 14.456C6.77943 14.456 6.80183 14.4784 6.80183 14.5061" stroke="#1A1A1A" stroke-width="1.5" stroke-linecap="round" stroke-linejoin="round"/>
<path d="M10.3033 14.5061C10.3033 14.5337 10.2809 14.5561 10.2533 14.5561C10.2256 14.5561 10.2032 14.5337 10.2032 14.5061C10.2032 14.4784 10.2256 14.456 10.2533 14.456" stroke="#1A1A1A" stroke-width="1.5" stroke-linecap="round" stroke-linejoin="round"/>
<path d="M10.2533 14.456C10.2809 14.456 10.3033 14.4784 10.3033 14.5061" stroke="#1A1A1A" stroke-width="1.5" stroke-linecap="round" stroke-linejoin="round"/>
<path d="M13.8047 14.5061C13.8047 14.5337 13.7824 14.5561 13.7547 14.5561C13.7271 14.5561 13.7047 14.5337 13.7047 14.5061C13.7047 14.4784 13.7271 14.456 13.7547 14.456" stroke="#1A1A1A" stroke-width="1.5" stroke-linecap="round" stroke-linejoin="round"/>
<path d="M13.7547 14.456C13.7824 14.456 13.8048 14.4784 13.8048 14.5061" stroke="#1A1A1A" stroke-width="1.5" stroke-linecap="round" stroke-linejoin="round"/>
<path d="M17.3072 14.5061C17.3072 14.5337 17.2848 14.5561 17.2572 14.5561C17.2295 14.5561 17.2071 14.5337 17.2071 14.5061C17.2071 14.4784 17.2295 14.456 17.2572 14.456" stroke="#1A1A1A" stroke-width="1.5" stroke-linecap="round" stroke-linejoin="round"/>
<path d="M17.2572 14.456C17.2848 14.456 17.3072 14.4784 17.3072 14.5061" stroke="#1A1A1A" stroke-width="1.5" stroke-linecap="round" stroke-linejoin="round"/>
<path d="M17.3072 17.5073C17.3072 17.5349 17.2848 17.5573 17.2572 17.5573C17.2295 17.5573 17.2071 17.5349 17.2071 17.5073C17.2071 17.4797 17.2295 17.4573 17.2572 17.4573" stroke="#1A1A1A" stroke-width="1.5" stroke-linecap="round" stroke-linejoin="round"/>
<path d="M17.2572 17.4573C17.2848 17.4573 17.3072 17.4796 17.3072 17.5073" stroke="#1A1A1A" stroke-width="1.5" stroke-linecap="round" stroke-linejoin="round"/>
<path d="M13.8047 17.5073C13.8047 17.5349 13.7824 17.5573 13.7547 17.5573C13.7271 17.5573 13.7047 17.5349 13.7047 17.5073C13.7047 17.4797 13.7271 17.4573 13.7547 17.4573" stroke="#1A1A1A" stroke-width="1.5" stroke-linecap="round" stroke-linejoin="round"/>
<path d="M13.7547 17.4573C13.7824 17.4573 13.8048 17.4796 13.8048 17.5073" stroke="#1A1A1A" stroke-width="1.5" stroke-linecap="round" stroke-linejoin="round"/>
<path d="M10.3033 17.5073C10.3033 17.5349 10.2809 17.5573 10.2533 17.5573C10.2256 17.5573 10.2032 17.5349 10.2032 17.5073C10.2032 17.4797 10.2256 17.4573 10.2533 17.4573" stroke="#1A1A1A" stroke-width="1.5" stroke-linecap="round" stroke-linejoin="round"/>
<path d="M10.2533 17.4573C10.2809 17.4573 10.3033 17.4796 10.3033 17.5073" stroke="#1A1A1A" stroke-width="1.5" stroke-linecap="round" stroke-linejoin="round"/>
<path d="M6.80182 17.5073C6.80182 17.5349 6.77942 17.5573 6.7518 17.5573C6.72417 17.5573 6.70177 17.5349 6.70177 17.5073C6.70177 17.4797 6.72417 17.4573 6.7518 17.4573" stroke="#1A1A1A" stroke-width="1.5" stroke-linecap="round" stroke-linejoin="round"/>
<path d="M6.75181 17.4573C6.77943 17.4573 6.80183 17.4796 6.80183 17.5073" stroke="#1A1A1A" stroke-width="1.5" stroke-linecap="round" stroke-linejoin="round"/>
</svg>
