<svg width="33" height="33" viewBox="0 0 33 33" fill="none" xmlns="http://www.w3.org/2000/svg">
<path fill-rule="evenodd" clip-rule="evenodd" d="M18.6439 9.85278L22.1601 13.369L13.3685 22.1606L9.85228 18.6444L18.6439 9.85278Z" stroke="#1A1A1A" stroke-width="1.5" stroke-linecap="round" stroke-linejoin="round"/>
<path fill-rule="evenodd" clip-rule="evenodd" d="M4.79775 14.9076C5.16172 14.5436 5.75183 14.5436 6.1158 14.9076L17.1056 25.8974C17.4696 26.2613 17.4696 26.8514 17.1056 27.2154L15.7864 28.5345C15.4225 28.8985 14.8324 28.8985 14.4684 28.5345L3.4786 17.5447C3.11463 17.1808 3.11463 16.5907 3.4786 16.2267L4.79775 14.9076Z" stroke="#1A1A1A" stroke-width="1.5" stroke-linecap="round" stroke-linejoin="round"/>
<path fill-rule="evenodd" clip-rule="evenodd" d="M4.79798 20.1832C5.16195 19.8192 5.75206 19.8192 6.11602 20.1832L11.8314 25.8986C12.1954 26.2626 12.1954 26.8527 11.8314 27.2166L10.5123 28.5358C10.1483 28.8998 9.55821 28.8998 9.19424 28.5358L3.47883 22.8204C3.11486 22.4564 3.11486 21.8663 3.47883 21.5023L4.79798 20.1832Z" stroke="#1A1A1A" stroke-width="1.5" stroke-linecap="round" stroke-linejoin="round"/>
<path fill-rule="evenodd" clip-rule="evenodd" d="M27.2152 17.1068C26.8513 17.4708 26.2611 17.4708 25.8972 17.1068L14.9074 6.11705C14.5434 5.75308 14.5434 5.16297 14.9074 4.799L16.2265 3.47986C16.5905 3.11589 17.1806 3.11589 17.5446 3.47986L28.5344 14.4697C28.8983 14.8336 28.8983 15.4237 28.5344 15.7877L27.2152 17.1068Z" stroke="#1A1A1A" stroke-width="1.5" stroke-linecap="round" stroke-linejoin="round"/>
<path fill-rule="evenodd" clip-rule="evenodd" d="M27.2156 11.8302C26.8517 12.1942 26.2616 12.1942 25.8976 11.8302L20.1822 6.11483C19.8182 5.75086 19.8182 5.16075 20.1822 4.79678L21.5013 3.47763C21.8653 3.11366 22.4554 3.11366 22.8194 3.47763L28.5348 9.19304C28.8988 9.55701 28.8988 10.1471 28.5348 10.5111L27.2156 11.8302Z" stroke="#1A1A1A" stroke-width="1.5" stroke-linecap="round" stroke-linejoin="round"/>
</svg>
