<svg width="26" height="27" viewBox="0 0 26 27" fill="none" xmlns="http://www.w3.org/2000/svg">
<path d="M17.9434 10.1492L1.80081 5.60376C1.80081 5.60376 1.05066 5.661 0 6.1925C0.177459 6.78182 0.484629 7.32393 0.898965 7.77903L16.4884 11.8563C17.216 11.3391 17.4859 10.9974 17.9434 10.1492Z" fill="url(#paint0_linear_2420_3799)"/>
<path d="M17.9433 10.1491L17.1012 11.1374L2.57423 7.03101C2.3791 6.97586 2.1732 6.97085 1.97562 7.01646C1.77803 7.06207 1.59516 7.15681 1.44394 7.2919L0.898926 7.77894L16.1817 12.2164L19.6745 13.2305L19.9922 10.7261L17.9433 10.1491Z" fill="url(#paint1_linear_2420_3799)"/>
<path d="M3.67163 26.131H20.9812C20.9812 26.131 20.7753 21.3134 19.3342 17.7415L9.31034 14.4326L4.06305 23.9086L3.67163 26.131Z" fill="#772249"/>
<path d="M18.5674 18.0742C18.5674 18.0742 19.9487 21.2332 20.1677 25.3558C20.1783 25.5646 20.2685 25.7615 20.4199 25.9057C20.5714 26.0499 20.7724 26.1305 20.9815 26.1309H22.3118C22.3118 26.1309 22.0307 22.049 20.7059 19.0505L18.5674 18.0742Z" fill="url(#paint2_linear_2420_3799)"/>
<path d="M9.3079 15.5571C9.3079 15.5571 9.45613 18.725 7.47966 20.7705C5.78648 22.5238 4.96361 24.0076 4.64631 25.4266C4.59949 25.6278 4.48566 25.8072 4.3235 25.9352C4.16134 26.0633 3.96047 26.1324 3.75385 26.1312H0.878906C0.878906 26.1312 1.01306 23.9909 3.19064 22.0642C4.19396 21.1753 4.99609 20.0826 5.54346 18.859L6.15526 17.4935L9.3079 15.5571Z" fill="url(#paint3_linear_2420_3799)"/>
<path d="M21.2964 13.3707L24.664 14.6103C24.7958 14.6588 24.9375 14.6748 25.0768 14.6568C25.2162 14.6389 25.3492 14.5875 25.4644 14.5071C25.5797 14.4267 25.6738 14.3197 25.7388 14.1951C25.8038 14.0705 25.8377 13.9321 25.8377 13.7916C25.8378 13.6339 25.7887 13.4802 25.6973 13.3517C25.6059 13.2233 25.4766 13.1266 25.3276 13.0751L21.6267 11.7959L21.2964 13.3707Z" fill="url(#paint4_linear_2420_3799)"/>
<path d="M19.9463 9.27732L18.9141 11.6502L19.0634 14.3294C19.0736 14.5116 19.1485 14.6842 19.2747 14.8161C19.4008 14.948 19.5699 15.0305 19.7515 15.0487L20.2202 15.0957L21.1639 8.95375L20.907 8.86152C20.724 8.79596 20.5229 8.80244 20.3445 8.87966C20.1661 8.95687 20.0237 9.09903 19.9463 9.27732Z" fill="url(#paint5_linear_2420_3799)"/>
<path d="M17.9532 14.9521C18.7837 16.0715 21.5172 17.5554 21.5172 17.5554V20.5306C21.5172 20.5306 17.86 18.6091 16.5588 17.1525L17.9532 14.9521Z" fill="url(#paint6_linear_2420_3799)"/>
<path d="M18.7349 15.7294C18.4451 15.5015 18.1828 15.2407 17.9532 14.9521L16.5588 17.1525C16.9139 17.5295 17.3037 17.8723 17.723 18.1762C18.1456 17.5568 18.5106 16.7578 18.7349 15.7294Z" fill="#D57370"/>
<path d="M8.44909 21.3206L8.98183 21.8414C9.19619 22.0509 9.36578 22.3018 9.48034 22.5788C9.59491 22.8559 9.65205 23.1533 9.64832 23.453L9.61537 26.131H9.07308C8.84011 26.131 8.60941 26.0851 8.39417 25.9959C8.17893 25.9068 7.98335 25.7761 7.81862 25.6114C7.65388 25.4466 7.5232 25.2511 7.43405 25.0358C7.3449 24.8206 7.29902 24.5899 7.29903 24.3569C7.29901 23.9493 7.15409 23.555 6.89015 23.2443L6.45483 22.7316C6.45483 22.7316 6.79421 21.4259 8.44909 21.3206Z" fill="url(#paint7_linear_2420_3799)"/>
<path d="M9.02002 17.2525C9.18806 17.9027 9.37796 18.5472 9.58941 19.1846C9.7093 19.5451 9.76401 19.924 9.75098 20.3037L9.6212 24.3114H16.9707V21.7164C16.9714 20.9616 17.0348 20.2082 17.1601 19.4638C17.1959 19.2501 17.2322 19.0118 17.2644 18.7601L10.2711 14.0867L9.02002 17.2525Z" fill="url(#paint8_linear_2420_3799)"/>
<path d="M17.2638 18.7601C17.3515 18.0766 17.4093 17.2942 17.3457 16.6368L10.271 14.0867L8.67114 15.7365C8.67114 15.7365 8.78438 16.3431 9.01991 17.2518C10.3696 18.57 12.0202 19.5393 13.8289 20.076C14.4791 20.2637 15.1762 20.199 15.7807 19.8948C16.3411 19.6118 16.8441 19.227 17.2638 18.7601Z" fill="#C6AC9A"/>
<path d="M8.62245 16.175L5.94598 18.5868L2.79614 17.9618L6.1545 14.9802C7.2194 15.1482 8.0501 15.5387 8.62245 16.175Z" fill="url(#paint9_linear_2420_3799)"/>
<path d="M6.15479 14.98C6.77754 15.1841 7.78908 15.5751 8.62233 16.1748L9.99606 14.9367L7.92117 13.4119L6.15479 14.98Z" fill="#D57370"/>
<path d="M2.23703 17.7602C2.77966 17.684 4.55222 17.5172 5.98599 18.3212C6.24094 18.469 6.44636 18.6891 6.57629 18.9536C6.78685 19.3497 7.03694 19.7236 7.32274 20.0694C6.12343 21.3683 4.77301 21.1407 3.33587 20.0386C2.85426 19.3887 2.45125 18.6841 2.13524 17.9395C2.12749 17.9211 2.12406 17.9012 2.12522 17.8813C2.12638 17.8615 2.1321 17.8421 2.14194 17.8248C2.15178 17.8074 2.16548 17.7926 2.18196 17.7814C2.19845 17.7702 2.21729 17.763 2.23703 17.7602Z" fill="url(#paint10_radial_2420_3799)"/>
<path d="M15.6128 11.8938C15.6128 11.8938 16.1966 11.8538 16.5572 12.1355C16.7356 12.2745 16.8734 12.4589 16.9563 12.6694C17.0526 12.9176 17.2245 13.1293 17.4476 13.2745C17.7115 13.441 17.9237 13.678 18.0602 13.9587L18.1088 15.7725C17.9561 16.2763 17.3005 18.0739 15.483 19.0749C15.3246 19.1622 15.1483 19.2119 14.9676 19.22C14.7869 19.2281 14.6068 19.1944 14.4413 19.1215C13.6117 18.7549 12.0736 17.9399 10.875 16.2813L12.3341 11.2427L15.6128 11.8938Z" fill="url(#paint11_linear_2420_3799)"/>
<path d="M12.334 11.2429L9.9104 14.5361C10.1612 15.1543 10.4852 15.7401 10.8757 16.2809C12.9117 14.9787 12.8206 11.9561 12.8206 11.9561V11.3396L12.334 11.2429Z" fill="#772249"/>
<path d="M12.1782 10.3429V10.8077C12.1761 11.2994 12.3311 11.779 12.6206 12.1764C12.9381 12.6132 13.3656 12.958 13.8596 13.176C14.0471 13.2598 14.2539 13.2912 14.4579 13.2667C14.6619 13.2423 14.8554 13.1629 15.0178 13.037C15.1932 12.9003 15.3371 12.7275 15.4398 12.5302C15.5424 12.3329 15.6015 12.1159 15.6129 11.8938C15.6129 11.8938 14.7085 11.4431 14.9705 10.1223L12.1782 10.3429Z" fill="url(#paint12_linear_2420_3799)"/>
<path d="M12.1782 7.77979V10.3429C12.5864 10.6365 13.7084 11.3388 15.0992 11.347C14.9541 11.0686 14.8618 10.6707 14.9706 10.1224L12.1782 7.77979Z" fill="#D57370"/>
<path d="M10.622 6.38858C10.622 6.38858 10.3072 7.88453 11.2651 8.12434C11.2651 8.12434 11.7292 8.27406 12.1782 7.7801C12.1686 8.00912 12.1807 8.23853 12.2142 8.46528C12.2422 8.64711 12.3067 8.8214 12.4038 8.97761C12.501 9.13382 12.6288 9.26871 12.7796 9.37413C13.5644 9.91263 14.4436 10.2984 15.3712 10.5113C15.4754 10.5357 15.5842 10.5316 15.6862 10.4994C15.7882 10.4673 15.8797 10.4082 15.951 10.3285C16.0113 10.2615 16.0679 10.1913 16.1205 10.1182C16.3856 9.74398 16.5439 9.30469 16.5784 8.8474C16.6253 8.28386 16.7152 7.10753 16.7483 5.997C16.7647 5.44457 14.2438 2.93042 14.2438 2.93042L10.5725 5.48995L10.622 6.38858Z" fill="url(#paint13_linear_2420_3799)"/>
<path d="M7.26071 12.0659C7.94795 11.1584 9.16306 10.1883 11.1523 10.4271C11.3473 10.4498 11.5368 10.5066 11.7123 10.5947C12.0467 11.1488 12.2875 11.7298 11.9072 12.4888L10.2491 14.4325L7.02905 13.3107L7.26071 12.0659Z" fill="url(#paint14_radial_2420_3799)"/>
<path d="M9.62109 24.3115H14.923V26.131H9.62109V24.3115Z" fill="url(#paint15_linear_2420_3799)"/>
<path d="M14.8647 24.3115H16.9708V26.131H14.8647V24.3115Z" fill="url(#paint16_linear_2420_3799)"/>
<path d="M21.3332 13.3364C21.3332 13.3364 20.8761 16.8611 20.875 19.794C20.8717 20.3523 21.0724 20.8926 21.4396 21.3133C21.8019 21.7227 22.3775 22.1988 23.269 22.56C23.2871 22.5671 23.3065 22.5701 23.3259 22.5687C23.3453 22.5673 23.3641 22.5616 23.3809 22.552C23.3978 22.5423 23.4123 22.529 23.4233 22.5131C23.4344 22.4971 23.4417 22.4788 23.4447 22.4597C23.5629 21.7339 24.004 18.5719 23.5418 14.2212L21.3332 13.3364Z" fill="url(#paint17_radial_2420_3799)"/>
<path d="M23.5419 14.2212L21.3333 13.3364C21.3333 13.3364 21.2427 14.0354 21.1421 15.0695C21.9064 15.7212 22.7775 16.2361 23.717 16.5915C23.6841 15.7997 23.6257 15.0092 23.5419 14.2212Z" fill="#9EB7EC"/>
<path d="M21.5434 10.9008C22.249 11.0468 22.9176 11.3348 23.5085 11.7472C23.6328 11.8314 23.7331 11.9465 23.7996 12.0811C23.8661 12.2157 23.8965 12.3653 23.8878 12.5152L23.8027 13.7979C23.7921 13.9102 23.7584 14.0191 23.7036 14.1178C23.6488 14.2164 23.5742 14.3027 23.4845 14.3711C23.3947 14.4395 23.2918 14.4886 23.1822 14.5153C23.0726 14.542 22.9586 14.5457 22.8474 14.5262C22.0755 14.4159 21.3393 14.1292 20.6961 13.6883C20.601 13.6219 20.522 13.5348 20.4652 13.4335C20.4084 13.3323 20.3751 13.2195 20.368 13.1036C20.3385 12.6113 20.3622 12.1173 20.4385 11.6301C20.4615 11.5088 20.5085 11.3933 20.5769 11.2905C20.6453 11.1878 20.7337 11.0998 20.8367 11.0317C20.9397 10.9637 21.0554 10.9171 21.1768 10.8946C21.2981 10.8721 21.4228 10.8742 21.5434 10.9008Z" fill="url(#paint18_linear_2420_3799)"/>
<path d="M11.8635 13.463C11.8635 13.463 12.8662 14.7048 14.3466 15.458C14.6638 15.6206 15.0277 15.6678 15.3759 15.5916C15.724 15.5154 16.0349 15.3205 16.2552 15.0403C16.4333 14.7845 16.5941 14.517 16.7364 14.2397C16.7492 14.216 16.7529 14.1885 16.7471 14.1622C16.7412 14.1359 16.726 14.1126 16.7043 14.0966C16.6827 14.0806 16.656 14.073 16.6291 14.075C16.6023 14.0771 16.5771 14.0888 16.5581 14.1079C16.1749 14.4945 15.6523 14.9562 15.2893 15.0159C14.6514 15.1213 12.7175 13.4714 12.4409 12.5476L11.8635 13.463ZM15.8287 16.972C15.4763 17.1673 14.9804 17.115 14.4962 17.0163C14.4764 17.0122 14.4559 17.015 14.4379 17.0241C14.4199 17.0332 14.4055 17.0482 14.3972 17.0666C14.3888 17.085 14.3869 17.1056 14.3919 17.1252C14.3968 17.1448 14.4083 17.1621 14.4244 17.1743C14.5066 17.2371 14.5901 17.2983 14.6747 17.3578C14.8582 17.4877 15.0723 17.5675 15.2959 17.5896C15.5196 17.6116 15.7452 17.5751 15.9505 17.4836C16.7979 17.0967 17.5386 16.5094 18.1087 15.7725C18.1345 15.6871 18.1463 15.6381 18.1463 15.6381C18.3299 14.8817 18.2456 14.3413 18.0602 13.9587C17.3559 16.1889 15.8287 16.972 15.8287 16.972Z" fill="#772249"/>
<path d="M14.7989 7.13247C14.777 7.13246 14.7553 7.12955 14.7342 7.12383C14.6459 7.1 14.557 7.07804 14.4677 7.05794C14.4038 7.04318 14.3484 7.00364 14.3137 6.94801C14.2789 6.89239 14.2677 6.82525 14.2825 6.76135C14.2972 6.69745 14.3368 6.64204 14.3924 6.6073C14.448 6.57255 14.5152 6.56133 14.5791 6.5761C14.6649 6.59594 14.7674 6.62073 14.8632 6.64659C14.9213 6.66197 14.9718 6.698 15.0052 6.74793C15.0386 6.79786 15.0527 6.85826 15.0449 6.91784C15.037 6.97741 15.0076 7.03207 14.9624 7.07157C14.9171 7.11108 14.859 7.13273 14.7989 7.13247ZM15.9861 7.13247C15.9272 7.13254 15.8703 7.11161 15.8256 7.07346C15.7808 7.03531 15.7511 6.98244 15.7418 6.92435C15.7325 6.86626 15.7443 6.80678 15.775 6.75658C15.8057 6.70639 15.8532 6.66879 15.9091 6.65054C15.9091 6.65054 16.0249 6.61266 16.1727 6.56967C16.2356 6.55135 16.3032 6.55877 16.3607 6.59029C16.4181 6.62182 16.4607 6.67488 16.479 6.7378C16.4973 6.80071 16.4899 6.86833 16.4584 6.92577C16.4268 6.98322 16.3738 7.02578 16.3109 7.04411C16.1731 7.08421 16.0648 7.11963 16.0632 7.12012C16.0383 7.12833 16.0123 7.1325 15.9861 7.13247Z" fill="#D57370"/>
<path d="M11.7125 10.595C12.0031 12.1803 11.0106 13.9467 9.18175 13.7618C7.40869 13.5827 7.26235 12.4297 7.26087 12.066C7.01045 12.3981 6.79921 12.758 6.63136 13.1385C6.61353 13.179 6.60439 13.2227 6.60454 13.2669C6.60468 13.3111 6.61412 13.3547 6.63222 13.3951C6.65033 13.4354 6.67671 13.4714 6.70964 13.5009C6.74258 13.5304 6.78134 13.5526 6.82341 13.5661C7.73725 13.8594 8.57712 14.3462 9.28576 14.9934C9.4308 15.1255 9.61767 15.2023 9.81364 15.2104C10.0096 15.2186 10.2022 15.1575 10.3577 15.0379C11.4993 14.1571 12.1135 12.8467 12.3637 11.9559C12.5299 11.3637 12.2212 10.8536 11.7125 10.595ZM3.33667 20.0382C4.79333 21.9986 6.4548 22.732 6.4548 22.732C7.20232 21.6235 8.44906 21.3206 8.44906 21.3206C8.02354 20.8855 7.64274 20.4686 7.3228 20.0696C5.51285 20.8827 4.17889 20.531 3.33667 20.0382Z" fill="#9EB7EC"/>
<path d="M14.2438 2.92993L11.5007 4.84233C11.9721 5.4725 12.5832 6.43998 12.5832 6.43998C12.8551 6.33822 13.0883 6.15392 13.2502 5.91292L13.4622 6.16879C13.4948 6.20842 13.5397 6.23607 13.5897 6.24739C13.6398 6.2587 13.6922 6.25304 13.7387 6.2313C13.9759 6.11971 14.4166 5.836 14.7733 5.16787C14.7733 5.16787 15.6264 5.87553 16.748 5.99684C16.7645 5.4445 16.7671 4.90821 16.7433 4.47199L14.2438 2.92993Z" fill="#D57370"/>
<path d="M14.3411 3.70768C14.3411 3.70768 15.1624 5.36578 18.153 5.21079C18.0596 4.77314 17.8631 4.36409 17.5799 4.01758C17.5799 4.01758 18.5252 4.38948 19.5015 3.52173C19.5015 3.52173 18.8816 3.38222 18.4942 2.94839C18.1068 2.51455 17.2236 1.29029 15.9989 1.12015C15.9989 1.12015 16.5413 0.980728 16.9213 0.329564C16.9213 0.329564 16.0922 0.345046 15.5654 0.128128C15.5654 0.128128 13.0396 -0.70866 11.8773 1.89468C11.8773 1.89468 10.1573 1.92565 9.7234 4.11055C9.7234 4.11055 9.44447 5.56721 10.6222 6.38852C10.6724 6.25531 10.7508 6.13451 10.852 6.0344C10.9344 5.95271 11.0337 5.88992 11.1428 5.85037C11.252 5.81082 11.3684 5.79546 11.4841 5.80536C11.5998 5.81525 11.7119 5.85016 11.8127 5.90766C11.9136 5.96517 12.0007 6.0439 12.0681 6.13841C12.1664 6.28595 12.2186 6.45932 12.2183 6.63656C12.2183 6.63656 12.9621 6.45061 13.1324 5.44335L13.4632 5.74336C13.491 5.76871 13.5264 5.78422 13.5638 5.78749C13.6013 5.79076 13.6388 5.78162 13.6706 5.76148C13.9357 5.592 14.5438 5.04896 14.3411 3.70768Z" fill="url(#paint19_linear_2420_3799)"/>
<defs>
<linearGradient id="paint0_linear_2420_3799" x1="-0.425929" y1="5.81154" x2="14.3076" y2="10.5285" gradientUnits="userSpaceOnUse">
<stop stop-color="#D7E2ED"/>
<stop offset="1" stop-color="#EAEDED"/>
</linearGradient>
<linearGradient id="paint1_linear_2420_3799" x1="17.7207" y1="11.3736" x2="-2.75631" y2="5.51349" gradientUnits="userSpaceOnUse">
<stop stop-color="#9EB7EC"/>
<stop offset="1" stop-color="#87A2D5"/>
</linearGradient>
<linearGradient id="paint2_linear_2420_3799" x1="21.2322" y1="27.1923" x2="19.926" y2="18.4687" gradientUnits="userSpaceOnUse">
<stop stop-color="#E55F96"/>
<stop offset="1" stop-color="#AF3566"/>
</linearGradient>
<linearGradient id="paint3_linear_2420_3799" x1="21.2321" y1="27.1923" x2="19.9259" y2="18.4686" gradientUnits="userSpaceOnUse">
<stop stop-color="#E55F96"/>
<stop offset="1" stop-color="#AF3566"/>
</linearGradient>
<linearGradient id="paint4_linear_2420_3799" x1="21.469" y1="12.2824" x2="24.5614" y2="13.854" gradientUnits="userSpaceOnUse">
<stop stop-color="#535365"/>
<stop offset="1" stop-color="#39394C"/>
</linearGradient>
<linearGradient id="paint5_linear_2420_3799" x1="19.9331" y1="11.0452" x2="19.3122" y2="15.3914" gradientUnits="userSpaceOnUse">
<stop stop-color="#EDB352"/>
<stop offset="0.532" stop-color="#E8913D"/>
<stop offset="1" stop-color="#E5782E"/>
</linearGradient>
<linearGradient id="paint6_linear_2420_3799" x1="16.5587" y1="17.7414" x2="21.5172" y2="17.7414" gradientUnits="userSpaceOnUse">
<stop stop-color="#EDCFC9"/>
<stop offset="1" stop-color="#ECA397"/>
</linearGradient>
<linearGradient id="paint7_linear_2420_3799" x1="16.5588" y1="17.7414" x2="21.5174" y2="17.7414" gradientUnits="userSpaceOnUse">
<stop stop-color="#EDCFC9"/>
<stop offset="1" stop-color="#ECA397"/>
</linearGradient>
<linearGradient id="paint8_linear_2420_3799" x1="13.1421" y1="23.0174" x2="13.1421" y2="14.3478" gradientUnits="userSpaceOnUse">
<stop stop-color="#ECDBCD"/>
<stop offset="1" stop-color="#D3BBAB"/>
</linearGradient>
<linearGradient id="paint9_linear_2420_3799" x1="16.5588" y1="17.7414" x2="21.5174" y2="17.7414" gradientUnits="userSpaceOnUse">
<stop stop-color="#EDCFC9"/>
<stop offset="1" stop-color="#ECA397"/>
</linearGradient>
<radialGradient id="paint10_radial_2420_3799" cx="0" cy="0" r="1" gradientUnits="userSpaceOnUse" gradientTransform="translate(3.99601 18.3116) scale(4.28573)">
<stop stop-color="#EDEDED"/>
<stop offset="1" stop-color="#C2D0ED"/>
</radialGradient>
<linearGradient id="paint11_linear_2420_3799" x1="21.232" y1="27.1923" x2="19.9258" y2="18.4687" gradientUnits="userSpaceOnUse">
<stop stop-color="#E55F96"/>
<stop offset="1" stop-color="#AF3566"/>
</linearGradient>
<linearGradient id="paint12_linear_2420_3799" x1="16.5587" y1="17.7414" x2="21.5172" y2="17.7414" gradientUnits="userSpaceOnUse">
<stop stop-color="#EDCFC9"/>
<stop offset="1" stop-color="#ECA397"/>
</linearGradient>
<linearGradient id="paint13_linear_2420_3799" x1="16.5586" y1="17.7414" x2="21.5172" y2="17.7414" gradientUnits="userSpaceOnUse">
<stop stop-color="#EDCFC9"/>
<stop offset="1" stop-color="#ECA397"/>
</linearGradient>
<radialGradient id="paint14_radial_2420_3799" cx="0" cy="0" r="1" gradientUnits="userSpaceOnUse" gradientTransform="translate(3.99608 18.3117) scale(4.28573 4.28573)">
<stop stop-color="#EDEDED"/>
<stop offset="1" stop-color="#C2D0ED"/>
</radialGradient>
<linearGradient id="paint15_linear_2420_3799" x1="21.469" y1="12.2826" x2="24.5614" y2="13.8542" gradientUnits="userSpaceOnUse">
<stop stop-color="#535365"/>
<stop offset="1" stop-color="#39394C"/>
</linearGradient>
<linearGradient id="paint16_linear_2420_3799" x1="19.9332" y1="11.0452" x2="19.3123" y2="15.3915" gradientUnits="userSpaceOnUse">
<stop stop-color="#EDB352"/>
<stop offset="0.532" stop-color="#E8913D"/>
<stop offset="1" stop-color="#E5782E"/>
</linearGradient>
<radialGradient id="paint17_radial_2420_3799" cx="0" cy="0" r="1" gradientUnits="userSpaceOnUse" gradientTransform="translate(3.99598 18.3118) scale(4.28573 4.28573)">
<stop stop-color="#EDEDED"/>
<stop offset="1" stop-color="#C2D0ED"/>
</radialGradient>
<linearGradient id="paint18_linear_2420_3799" x1="16.5588" y1="17.7413" x2="21.5174" y2="17.7413" gradientUnits="userSpaceOnUse">
<stop stop-color="#EDCFC9"/>
<stop offset="1" stop-color="#ECA397"/>
</linearGradient>
<linearGradient id="paint19_linear_2420_3799" x1="21.4689" y1="12.2825" x2="24.5613" y2="13.8541" gradientUnits="userSpaceOnUse">
<stop stop-color="#535365"/>
<stop offset="1" stop-color="#39394C"/>
</linearGradient>
</defs>
</svg>
