<svg width="19" height="20" viewBox="0 0 19 20" fill="none" xmlns="http://www.w3.org/2000/svg">
<g clip-path="url(#clip0_1169_10434)">
<mask id="mask0_1169_10434" style="mask-type:luminance" maskUnits="userSpaceOnUse" x="0" y="0" width="19" height="20">
<path d="M18.8175 8.14476H9.70237V11.9894H14.94C14.8558 12.5336 14.6667 13.0688 14.3899 13.5569C14.0727 14.1161 13.6805 14.5418 13.2786 14.866C12.0746 15.8372 10.6709 16.0358 9.69601 16.0358C7.23338 16.0358 5.12923 14.3604 4.31467 12.0838C4.2818 12.0012 4.25997 11.9159 4.23339 11.8315C4.05339 11.2521 3.95504 10.6384 3.95504 10.0006C3.95504 9.33685 4.06154 8.70145 4.25573 8.10134C5.02169 5.73451 7.17328 3.96672 9.69778 3.96672C10.2056 3.96672 10.6945 4.03034 11.1582 4.15724C12.218 4.44725 12.9676 5.01843 13.4269 5.47023L16.1985 2.61313C14.5126 0.985972 12.3148 2.46015e-09 9.69317 2.46015e-09C7.59735 -4.74827e-05 5.6624 0.687318 4.07677 1.84899C2.79087 2.79107 1.73625 4.0524 1.02452 5.5173C0.362497 6.87555 0 8.38075 0 9.99913C0 11.6176 0.363051 13.1384 1.02507 14.4841V14.4932C1.72433 15.9218 2.74688 17.1519 3.98969 18.0897C5.07541 18.9089 7.02222 20 9.69317 20C11.2292 20 12.5905 19.7085 13.791 19.1622C14.6571 18.7681 15.4245 18.2541 16.1192 17.5935C17.0372 16.7206 17.7561 15.6409 18.2468 14.3987C18.7375 13.1565 19 11.7518 19 10.2289C19 9.51963 18.9323 8.79934 18.8175 8.14469V8.14476Z" fill="white"/>
</mask>
<g mask="url(#mask0_1169_10434)">
<g filter="url(#filter0_f_1169_10434)">
<path d="M-0.139771 10.067C-0.129695 11.6599 0.301504 13.3034 0.954197 14.6302V14.6393C1.4258 15.6028 2.07034 16.3639 2.80447 17.118L7.23839 15.415C6.39952 14.9665 6.27151 14.6916 5.67018 14.1901C5.05567 13.5378 4.59767 12.789 4.31245 11.911H4.30095L4.31245 11.9019C4.1248 11.3221 4.10629 10.7066 4.09937 10.067H-0.139771Z" fill="url(#paint0_radial_1169_10434)"/>
</g>
<g filter="url(#filter1_f_1169_10434)">
<path d="M9.70245 -0.0727539C9.2642 1.54791 9.43177 3.12324 9.70245 4.03984C10.2085 4.04024 10.696 4.10374 11.1583 4.23024C12.218 4.52026 12.9676 5.09145 13.4269 5.54325L16.2694 2.61316C14.5855 0.987939 12.559 -0.0701933 9.70245 -0.0727539Z" fill="url(#paint1_radial_1169_10434)"/>
</g>
<g filter="url(#filter2_f_1169_10434)">
<path d="M9.69295 -0.0855713C7.54333 -0.0856202 5.55871 0.619392 3.93238 1.81089C3.32852 2.25329 2.77437 2.76434 2.28093 3.33264C2.15167 4.60919 3.2486 6.1782 5.42088 6.16521C6.47485 4.87467 8.03366 4.0397 9.76861 4.0397C9.77019 4.0397 9.77173 4.03983 9.77332 4.03984L9.70246 -0.0852793C9.69926 -0.0852814 9.69616 -0.0855713 9.69295 -0.0855713Z" fill="url(#paint2_radial_1169_10434)"/>
</g>
<g filter="url(#filter3_f_1169_10434)">
<path d="M16.7879 10.5289L14.8692 11.9164C14.785 12.4605 14.5958 12.9958 14.319 13.4839C14.0018 14.0431 13.6096 14.4688 13.2077 14.793C12.0062 15.7622 10.6062 15.9617 9.63158 15.9625C8.62423 17.7685 8.44763 18.6731 9.70244 20.1307C11.2551 20.1295 12.6317 19.8345 13.8458 19.282C14.7235 18.8826 15.5011 18.3617 16.2052 17.6922C17.1355 16.8077 17.8642 15.7135 18.3615 14.4546C18.8588 13.1957 19.1247 11.7723 19.1247 10.2289L16.7879 10.5289Z" fill="url(#paint3_radial_1169_10434)"/>
</g>
<g filter="url(#filter4_f_1169_10434)">
<path d="M9.56073 7.99866V12.1355H18.792C18.8732 11.5689 19.1417 10.8358 19.1417 10.2289C19.1417 9.51962 19.0741 8.65331 18.9593 7.99866H9.56073Z" fill="#3086FF"/>
</g>
<g filter="url(#filter5_f_1169_10434)">
<path d="M2.32497 3.18658C1.7553 3.84268 1.26863 4.57704 0.882765 5.37123C0.220757 6.72949 -0.141724 8.38075 -0.141724 9.99913C-0.141724 10.0219 -0.13993 10.0442 -0.139786 10.067C0.153397 10.6587 3.91001 10.5454 4.09935 10.067C4.09912 10.0447 4.09673 10.0229 4.09673 10.0006C4.09673 9.33677 4.20326 8.84751 4.39745 8.2474C4.637 7.50717 5.01209 6.82552 5.49173 6.23823C5.60046 6.09211 5.89048 5.77799 5.97509 5.58957C6.00732 5.5178 5.91657 5.47752 5.9115 5.45226C5.90582 5.42401 5.78415 5.44673 5.75689 5.42568C5.67035 5.35886 5.49897 5.32396 5.3949 5.29295C5.17246 5.22665 4.80382 5.08044 4.59906 4.92889C3.95184 4.44982 2.94179 3.87758 2.32497 3.18658Z" fill="url(#paint4_radial_1169_10434)"/>
</g>
<g filter="url(#filter6_f_1169_10434)">
<path d="M4.61298 5.45506C6.11383 6.41206 6.54544 4.97202 7.5433 4.5214L5.8075 0.732361C5.16897 1.01486 4.5657 1.36583 4.00595 1.77591C3.17002 2.38834 2.43182 3.13568 1.82202 3.98616L4.61298 5.45506Z" fill="url(#paint5_radial_1169_10434)"/>
</g>
<g filter="url(#filter7_f_1169_10434)">
<path d="M5.2238 15.1223C3.20911 15.8879 2.8937 15.9153 2.70825 17.2296C3.06264 17.5937 3.44341 17.9304 3.84803 18.2357C4.93375 19.0549 7.02222 20.146 9.69317 20.146C9.69631 20.146 9.69931 20.1457 9.70245 20.1457V15.8895C9.70042 15.8895 9.6981 15.8897 9.69608 15.8897C8.6959 15.8897 7.89666 15.6131 7.07718 15.1323C6.87514 15.0137 6.50857 15.3321 6.32223 15.1897C6.06522 14.9934 5.44672 15.3589 5.2238 15.1223Z" fill="url(#paint6_radial_1169_10434)"/>
</g>
<g opacity="0.5" filter="url(#filter8_f_1169_10434)">
<path d="M8.52252 15.7555V20.072C8.89624 20.1181 9.28516 20.1461 9.69316 20.1461C10.1022 20.1461 10.4978 20.1239 10.8823 20.0833V15.7846C10.4515 15.8621 10.0456 15.8897 9.69606 15.8897C9.29345 15.8897 8.9019 15.8404 8.52252 15.7555Z" fill="url(#paint7_linear_1169_10434)"/>
</g>
</g>
</g>
<defs>
<filter id="filter0_f_1169_10434" x="-0.60985" y="9.59694" width="8.31833" height="7.99112" filterUnits="userSpaceOnUse" color-interpolation-filters="sRGB">
<feFlood flood-opacity="0" result="BackgroundImageFix"/>
<feBlend mode="normal" in="SourceGraphic" in2="BackgroundImageFix" result="shape"/>
<feGaussianBlur stdDeviation="0.23504" result="effect1_foregroundBlur_1169_10434"/>
</filter>
<filter id="filter1_f_1169_10434" x="8.9629" y="-0.542833" width="7.77658" height="6.55619" filterUnits="userSpaceOnUse" color-interpolation-filters="sRGB">
<feFlood flood-opacity="0" result="BackgroundImageFix"/>
<feBlend mode="normal" in="SourceGraphic" in2="BackgroundImageFix" result="shape"/>
<feGaussianBlur stdDeviation="0.23504" result="effect1_foregroundBlur_1169_10434"/>
</filter>
<filter id="filter2_f_1169_10434" x="1.80061" y="-0.555651" width="8.44278" height="7.19101" filterUnits="userSpaceOnUse" color-interpolation-filters="sRGB">
<feFlood flood-opacity="0" result="BackgroundImageFix"/>
<feBlend mode="normal" in="SourceGraphic" in2="BackgroundImageFix" result="shape"/>
<feGaussianBlur stdDeviation="0.23504" result="effect1_foregroundBlur_1169_10434"/>
</filter>
<filter id="filter3_f_1169_10434" x="8.34816" y="9.7588" width="11.2466" height="10.842" filterUnits="userSpaceOnUse" color-interpolation-filters="sRGB">
<feFlood flood-opacity="0" result="BackgroundImageFix"/>
<feBlend mode="normal" in="SourceGraphic" in2="BackgroundImageFix" result="shape"/>
<feGaussianBlur stdDeviation="0.23504" result="effect1_foregroundBlur_1169_10434"/>
</filter>
<filter id="filter4_f_1169_10434" x="9.09065" y="7.52858" width="10.5212" height="5.077" filterUnits="userSpaceOnUse" color-interpolation-filters="sRGB">
<feFlood flood-opacity="0" result="BackgroundImageFix"/>
<feBlend mode="normal" in="SourceGraphic" in2="BackgroundImageFix" result="shape"/>
<feGaussianBlur stdDeviation="0.23504" result="effect1_foregroundBlur_1169_10434"/>
</filter>
<filter id="filter5_f_1169_10434" x="-0.611803" y="2.71651" width="7.06388" height="8.223" filterUnits="userSpaceOnUse" color-interpolation-filters="sRGB">
<feFlood flood-opacity="0" result="BackgroundImageFix"/>
<feBlend mode="normal" in="SourceGraphic" in2="BackgroundImageFix" result="shape"/>
<feGaussianBlur stdDeviation="0.23504" result="effect1_foregroundBlur_1169_10434"/>
</filter>
<filter id="filter6_f_1169_10434" x="-1.48283" y="-2.57249" width="12.331" height="11.6541" filterUnits="userSpaceOnUse" color-interpolation-filters="sRGB">
<feFlood flood-opacity="0" result="BackgroundImageFix"/>
<feBlend mode="normal" in="SourceGraphic" in2="BackgroundImageFix" result="shape"/>
<feGaussianBlur stdDeviation="1.65243" result="effect1_foregroundBlur_1169_10434"/>
</filter>
<filter id="filter7_f_1169_10434" x="2.23817" y="14.6351" width="7.93436" height="5.98093" filterUnits="userSpaceOnUse" color-interpolation-filters="sRGB">
<feFlood flood-opacity="0" result="BackgroundImageFix"/>
<feBlend mode="normal" in="SourceGraphic" in2="BackgroundImageFix" result="shape"/>
<feGaussianBlur stdDeviation="0.23504" result="effect1_foregroundBlur_1169_10434"/>
</filter>
<filter id="filter8_f_1169_10434" x="8.05244" y="15.2854" width="3.29996" height="5.33072" filterUnits="userSpaceOnUse" color-interpolation-filters="sRGB">
<feFlood flood-opacity="0" result="BackgroundImageFix"/>
<feBlend mode="normal" in="SourceGraphic" in2="BackgroundImageFix" result="shape"/>
<feGaussianBlur stdDeviation="0.23504" result="effect1_foregroundBlur_1169_10434"/>
</filter>
<radialGradient id="paint0_radial_1169_10434" cx="0" cy="0" r="1" gradientTransform="matrix(-0.394821 -9.95993 14.1954 -0.597686 7.14963 16.9679)" gradientUnits="userSpaceOnUse">
<stop offset="0.141612" stop-color="#1ABD4D"/>
<stop offset="0.247515" stop-color="#6EC30D"/>
<stop offset="0.311547" stop-color="#8AC502"/>
<stop offset="0.366013" stop-color="#A2C600"/>
<stop offset="0.445673" stop-color="#C8C903"/>
<stop offset="0.540305" stop-color="#EBCB03"/>
<stop offset="0.615636" stop-color="#F7CD07"/>
<stop offset="0.699345" stop-color="#FDCD04"/>
<stop offset="0.771242" stop-color="#FDCE05"/>
<stop offset="0.860566" stop-color="#FFCE0A"/>
</radialGradient>
<radialGradient id="paint1_radial_1169_10434" cx="0" cy="0" r="1" gradientTransform="matrix(6.70515 -1.69631e-05 -9.42436e-06 8.92439 16.0035 5.33125)" gradientUnits="userSpaceOnUse">
<stop offset="0.408458" stop-color="#FB4E5A"/>
<stop offset="1" stop-color="#FF4540"/>
</radialGradient>
<radialGradient id="paint2_radial_1169_10434" cx="0" cy="0" r="1" gradientTransform="matrix(-9.39441 5.36243 7.06068 13.1383 12.3418 -1.37741)" gradientUnits="userSpaceOnUse">
<stop offset="0.231273" stop-color="#FF4541"/>
<stop offset="0.311547" stop-color="#FF4540"/>
<stop offset="0.457516" stop-color="#FF4640"/>
<stop offset="0.540305" stop-color="#FF473F"/>
<stop offset="0.699346" stop-color="#FF5138"/>
<stop offset="0.771242" stop-color="#FF5B33"/>
<stop offset="0.860566" stop-color="#FF6C29"/>
<stop offset="1" stop-color="#FF8C18"/>
</radialGradient>
<radialGradient id="paint3_radial_1169_10434" cx="0" cy="0" r="1" gradientTransform="matrix(-17.037 -22.9206 -8.2093 6.48127 9.8421 18.8363)" gradientUnits="userSpaceOnUse">
<stop offset="0.131546" stop-color="#0CBA65"/>
<stop offset="0.209784" stop-color="#0BB86D"/>
<stop offset="0.297297" stop-color="#09B479"/>
<stop offset="0.396257" stop-color="#08AD93"/>
<stop offset="0.477124" stop-color="#0AA6A9"/>
<stop offset="0.568425" stop-color="#0D9CC6"/>
<stop offset="0.667385" stop-color="#1893DD"/>
<stop offset="0.768727" stop-color="#258BF1"/>
<stop offset="0.858506" stop-color="#3086FF"/>
</radialGradient>
<radialGradient id="paint4_radial_1169_10434" cx="0" cy="0" r="1" gradientTransform="matrix(-1.20567 10.7101 14.3688 1.71807 8.86989 1.80336)" gradientUnits="userSpaceOnUse">
<stop offset="0.366013" stop-color="#FF4E3A"/>
<stop offset="0.457516" stop-color="#FF8A1B"/>
<stop offset="0.540305" stop-color="#FFA312"/>
<stop offset="0.615636" stop-color="#FFB60C"/>
<stop offset="0.771242" stop-color="#FFCD0A"/>
<stop offset="0.860566" stop-color="#FECF0A"/>
<stop offset="0.915033" stop-color="#FECF08"/>
<stop offset="1" stop-color="#FDCD01"/>
</radialGradient>
<radialGradient id="paint5_radial_1169_10434" cx="0" cy="0" r="1" gradientTransform="matrix(-3.48502 3.97231 -10.8713 -10.1305 7.17442 1.69224)" gradientUnits="userSpaceOnUse">
<stop offset="0.315904" stop-color="#FF4C3C"/>
<stop offset="0.603818" stop-color="#FF692C"/>
<stop offset="0.726837" stop-color="#FF7825"/>
<stop offset="0.884534" stop-color="#FF8D1B"/>
<stop offset="1" stop-color="#FF9F13"/>
</radialGradient>
<radialGradient id="paint6_radial_1169_10434" cx="0" cy="0" r="1" gradientTransform="matrix(-9.3944 -5.36243 7.06068 -13.1383 12.3418 21.3771)" gradientUnits="userSpaceOnUse">
<stop offset="0.231273" stop-color="#0FBC5F"/>
<stop offset="0.311547" stop-color="#0FBC5F"/>
<stop offset="0.366013" stop-color="#0FBC5E"/>
<stop offset="0.457516" stop-color="#0FBC5D"/>
<stop offset="0.540305" stop-color="#12BC58"/>
<stop offset="0.699346" stop-color="#28BF3C"/>
<stop offset="0.771242" stop-color="#38C02B"/>
<stop offset="0.860566" stop-color="#52C218"/>
<stop offset="0.915033" stop-color="#67C30F"/>
<stop offset="1" stop-color="#86C504"/>
</radialGradient>
<linearGradient id="paint7_linear_1169_10434" x1="8.52252" y1="17.9508" x2="10.8823" y2="17.9508" gradientUnits="userSpaceOnUse">
<stop stop-color="#0FBC5C"/>
<stop offset="1" stop-color="#0CBA65"/>
</linearGradient>
<clipPath id="clip0_1169_10434">
<rect width="19" height="20" fill="white"/>
</clipPath>
</defs>
</svg>
