<svg width="27" height="27" viewBox="0 0 27 27" fill="none" xmlns="http://www.w3.org/2000/svg">
<path d="M2.76312 0.686035C2.76312 0.686035 2.1873 0.874129 2.14967 1.78956V2.41668C1.96474 2.31906 1.75584 2.27609 1.54739 2.29279C1.33894 2.30948 1.13955 2.38516 0.972516 2.51098C0.415151 2.93501 0.531598 3.83422 0.531598 3.83422C0.531598 3.83422 0.856974 3.26945 1.51366 3.31062C1.67937 3.32144 1.83475 3.39495 1.94822 3.51621C2.06169 3.63746 2.12474 3.79737 2.12455 3.96343V4.2716H3.05621L2.76312 0.686035Z" fill="#FFB655"/>
<path d="M2.12451 4.27151V5.00075H3.40172V3.9631C3.40162 3.79711 3.46469 3.63729 3.57814 3.51611C3.69158 3.39493 3.84689 3.32146 4.01254 3.31062C4.6693 3.26944 4.99468 3.8343 4.99468 3.8343C4.99468 3.8343 5.11112 2.93509 4.55376 2.51106C4.3867 2.38527 4.1873 2.30963 3.97885 2.29298C3.7704 2.27632 3.56151 2.31934 3.37661 2.41701V1.78981C3.33897 0.874126 2.76308 0.686279 2.76308 0.686279V3.38235C2.76305 3.56081 2.71167 3.73549 2.61507 3.88555C2.51848 4.0356 2.38074 4.15469 2.21831 4.22861L2.12451 4.27151Z" fill="#F27B31"/>
<path d="M19.7034 10.1978C18.7309 9.87422 17.7906 9.61308 16.8032 9.6195L17.0026 10.9L18.9644 11.8335L19.7034 10.1978Z" fill="#3E3A6B"/>
<path d="M15.094 4.82344C16.7224 4.82344 18.0425 3.9437 18.0425 2.8585C18.0425 1.77329 16.7224 0.893555 15.094 0.893555C13.4656 0.893555 12.1455 1.77329 12.1455 2.8585C12.1455 3.9437 13.4656 4.82344 15.094 4.82344Z" fill="#342A35"/>
<path d="M3.4799 26.3529L2.76343 20.2005L20.8997 15.7693L25.9194 19.9341L24.7774 26.3529H20.2398C16.9136 25.9444 13.8192 25.8258 11.2417 26.3529H3.4799Z" fill="#342A35"/>
<path d="M22.7875 23.9944L21.9674 25.0576C21.5713 25.5713 20.8877 26.3216 20.2396 26.353H18.936L18.4666 23.3265C18.4666 23.3265 19.9442 23.5696 21.1112 22.4431C21.111 22.4431 22.3677 22.7819 22.7875 23.9944Z" fill="#EF837C"/>
<path d="M24.7585 16.0031L23.1107 14.5734L22.0838 13.6824L19.9087 16.8799L22.776 19.4035L21.1111 22.4432L22.7877 23.9944L25.2391 20.8165C26.3796 19.338 24.7585 16.0031 24.7585 16.0031Z" fill="#B1A7C6"/>
<path d="M22.5884 12.8826L22.1931 14.041L22.5026 16.6805C24.7251 19.226 24.7777 21.9852 24.7777 26.3529H25.6713C26.2523 26.3529 26.6051 26.1291 26.6996 25.2919C26.6994 25.2919 27.922 17.3352 22.5884 12.8826Z" fill="#655BAA"/>
<path d="M2.90723 23.564H7.04332C7.62244 23.5685 8.19433 23.4353 8.71179 23.1752C9.5046 22.7684 10.3891 21.9481 10.4052 20.3105H2.90723V23.564Z" fill="#B1A7C6"/>
<path d="M14.2088 24.2295H11.2414C11.0196 24.2295 10.8068 24.3176 10.65 24.4745C10.4931 24.6313 10.405 24.844 10.405 25.0659V25.5166C10.405 25.6264 10.4267 25.7352 10.4687 25.8367C10.5107 25.9381 10.5723 26.0303 10.65 26.108C10.7277 26.1857 10.8199 26.2473 10.9213 26.2893C11.0228 26.3313 11.1316 26.353 11.2414 26.353H14.2088V24.2295ZM18.9359 24.2295H15.9685V26.353H18.9359C19.0457 26.353 19.1545 26.3313 19.256 26.2893C19.3574 26.2473 19.4496 26.1857 19.5273 26.108C19.605 26.0303 19.6666 25.9381 19.7086 25.8367C19.7506 25.7352 19.7723 25.6264 19.7723 25.5166V25.0659C19.7723 24.844 19.6841 24.6313 19.5273 24.4745C19.3704 24.3176 19.1577 24.2295 18.9359 24.2295Z" fill="#342A35"/>
<path d="M22.3091 14.2772L22.0612 14.4273L21.603 15.7696C21.92 16.056 22.2199 16.3606 22.5012 16.682C22.7244 15.9812 22.8125 15.2444 22.761 14.5107C22.7573 14.4598 22.7406 14.4107 22.7125 14.3681C22.6844 14.3255 22.6458 14.2908 22.6005 14.2674C22.5551 14.244 22.5045 14.2326 22.4535 14.2343C22.4025 14.236 22.3528 14.2508 22.3091 14.2772Z" fill="#3E3A6B"/>
<path d="M10.0584 22.2677C10.0494 22.7502 10.1459 23.9394 11.2812 24.2295H12.9062L12.1996 20.592L10.0584 22.2677ZM20.1072 22.0624C20.1072 22.0624 20.3303 23.8626 18.8967 24.2291H17.2715L18.4666 18.08L20.1198 16.8247L20.1072 22.0624Z" fill="#B1A7C6"/>
<path d="M11.7114 21.4602V21.8719C11.7114 21.8719 11.7273 23.6562 12.9063 24.2298H17.2714C18.45 23.6559 18.4665 21.8716 18.4665 21.8716V20.3571L13.8884 19.2236C13.8884 19.2236 12.1425 20.0183 11.7114 21.4602Z" fill="#F5EEF7"/>
<path d="M10.0583 18.0801L10.0709 22.0628C10.0709 22.0628 10.0614 22.1413 10.059 22.2677C10.9743 22.0141 11.9953 21.4524 12.6759 20.5058C15.1343 21.6258 17.1213 21.1136 18.4667 20.3575V18.0801H10.0583Z" fill="#B1A7C6"/>
<path d="M16.9357 10.1973L19.1062 11.5368C19.1062 11.5368 17.6621 16.3527 13.2886 14.6061V11.6389L16.9357 10.1973Z" fill="#3E3A6B"/>
<path d="M19.1394 10.4381C18.7511 11.2184 18.2238 13.167 16.2974 13.8073C15.7411 13.9922 14.9825 14.1085 14.418 13.9629C13.722 14.5311 13.6201 16.9809 13.4529 19.2243C14.151 19.5737 14.9247 19.745 15.7051 19.7231C16.4855 19.7011 17.2484 19.4866 17.9258 19.0985C19.3986 18.2599 21.2693 16.7211 22.7565 13.935C22.8471 13.7652 22.8797 13.5705 22.8494 13.3805C22.8191 13.1905 22.7275 13.0156 22.5885 12.8825L21.9776 12.2978L22.0045 12.2248C22.0733 12.0391 22.0799 11.836 22.0234 11.6463C21.9668 11.4565 21.8502 11.2902 21.691 11.1724C21.0819 10.7484 20.4117 10.4197 19.7036 10.1979C19.5963 10.1643 19.4806 10.17 19.3772 10.214C19.2738 10.2581 19.1895 10.3375 19.1394 10.4381Z" fill="#655BAA"/>
<path d="M15.6355 16.8248C17.5602 16.4386 18.4718 15.1255 18.8953 14.1192C18.9157 14.0704 18.9181 14.016 18.9021 13.9656C18.8861 13.9152 18.8527 13.8721 18.8079 13.844C18.7631 13.8159 18.7098 13.8046 18.6575 13.8121C18.6051 13.8196 18.5572 13.8454 18.5221 13.885C18.0589 14.4117 17.5231 14.8697 16.9309 15.2452C16.5878 15.4643 16.2012 15.606 15.7978 15.6604C15.3945 15.7148 14.9841 15.6806 14.5953 15.5601C14.2288 15.4494 13.8758 15.298 13.543 15.1086L12.519 16.2545C13.0837 16.7688 14.0352 17.1459 15.6355 16.8248Z" fill="#3E3A6B"/>
<path d="M14.4179 13.9627C14.3411 13.943 14.2652 13.9198 14.1904 13.8931C13.8132 13.7625 13.4586 13.5743 13.1389 13.3352L12.0916 18.2681C12.3942 18.5519 12.7263 18.8026 13.0822 19.0159C13.2025 19.0907 13.3262 19.16 13.4528 19.2237C14.4089 17.1733 14.4389 14.7692 14.4179 13.9627Z" fill="#3E3A6B"/>
<path d="M13.723 13.0281C13.5062 19.8249 10.7247 21.3203 8.56926 21.4446C7.46112 21.5087 6.39103 21.1471 5.43606 20.5812C4.03606 19.7516 2.80793 19.8528 2.80793 19.8528C2.80793 19.8528 2.31488 18.8504 3.51921 18.2114C4.54064 17.6694 5.73476 18.485 5.73476 18.485C7.67705 18.1841 7.48558 16.4059 7.48558 16.4059V13.5608C7.49231 13.0366 7.64001 12.5239 7.91316 12.0764L12.4002 10.634L13.723 13.0281Z" fill="#655BAA"/>
<path d="M13.7231 10.0867L9.01776 10.8526C8.57408 11.1854 8.1991 11.6011 7.91357 12.0766C8.00828 12.5955 8.75629 13.4334 10.1975 13.4256C11.2126 13.42 11.8056 13.1882 12.5192 12.5923C12.8652 12.8592 13.2858 13.0116 13.7224 13.028C13.74 12.4752 13.7411 11.888 13.7231 11.2629V10.0867Z" fill="#3E3A6B"/>
<path d="M10.5016 9.13135C9.85309 9.36103 9.26796 9.7406 8.79386 10.2392C8.71987 10.3189 8.65737 10.4086 8.60815 10.5056C8.82842 11.5562 9.54678 11.7745 10.7632 11.1603C11.7267 10.1447 11.7248 9.44083 10.5016 9.13135Z" fill="#FFB655"/>
<path d="M18.1749 3.50244C18.1749 3.50244 18.1562 4.58777 19.0682 5.77892C19.0682 5.77892 19.9178 7.01035 19.518 8.31778C19.025 9.93009 17.1431 9.93009 17.1431 9.93009V3.50244H18.1749Z" fill="#342A35"/>
<path d="M11.7543 8.84302C11.3257 8.8828 10.9045 8.97974 10.5016 9.13126C10.701 9.30519 11.5938 10.1644 10.5939 10.8259C9.77428 11.3682 8.97891 11.2334 8.60923 10.5061C8.48703 10.739 8.451 11.0075 8.50751 11.2643C8.56401 11.5212 8.70941 11.7498 8.91806 11.9098C9.2179 12.1343 9.66146 12.3051 10.3165 12.2969C12.1765 12.2748 13.5586 10.3483 13.2884 8.84253L11.7543 8.84302Z" fill="#F27B31"/>
<path d="M12.013 3.50244C12.013 3.50244 12.0318 4.58777 11.1197 5.77892C11.1197 5.77892 10.2206 7.02657 10.67 8.31778C11.231 9.93009 13.2567 9.79849 13.2567 9.79849L13.0449 3.50244H12.013Z" fill="#342A35"/>
<path d="M16.6324 8.56312H13.5556C13.4229 8.56315 13.2916 8.53704 13.169 8.48629C13.0464 8.43554 12.9351 8.36115 12.8413 8.26737C12.7475 8.17358 12.6731 8.06223 12.6223 7.93969C12.5715 7.81714 12.5454 7.68579 12.5454 7.55315V5.18262L17.6422 5.22503V7.55315C17.6422 7.82097 17.5358 8.07784 17.3464 8.26724C17.1571 8.45665 16.9002 8.56308 16.6324 8.56312Z" fill="#FFCAC0"/>
<path d="M12.5454 5.18255C13.3703 5.40894 14.221 5.52745 15.0764 5.5351C15.9408 5.53286 16.802 5.42876 17.6422 5.22496V3.94849H12.5454V5.18255Z" fill="#EF837C"/>
<path d="M15.0939 4.94818C13.6309 4.94818 12.6902 4.61876 12.1543 4.33802C11.9819 4.24819 11.8374 4.11284 11.7364 3.94666C11.6355 3.78049 11.582 3.58984 11.5818 3.39541V1.74654C11.5818 1.27425 11.8467 1.064 12.1296 0.883071C12.36 1.19842 12.4864 1.57771 12.4914 1.96824C12.4912 2.10283 12.5217 2.23569 12.5805 2.35677C12.6393 2.47785 12.7248 2.58398 12.8307 2.66712C12.9365 2.75026 13.0599 2.80824 13.1915 2.83668C13.323 2.86511 13.4593 2.86325 13.5901 2.83125C13.7208 2.79924 13.8425 2.73792 13.9461 2.65192C14.0496 2.56593 14.1322 2.45751 14.1877 2.33487C14.2432 2.21224 14.27 2.07859 14.2662 1.94405C14.2624 1.80951 14.2281 1.67759 14.1658 1.55828C14.1011 1.43653 14.0736 1.29844 14.0868 1.16119C14.0999 1.02394 14.1532 0.893598 14.2399 0.786388C14.4843 0.483682 14.7721 0.218699 15.0939 0C15.3069 1.80106 15.3564 3.48575 15.0939 4.94818Z" fill="#FFB655"/>
<path d="M12.9231 8.71509V10.3591C12.9444 10.6959 13.0355 11.0245 13.1906 11.3242C13.3457 11.6239 13.5614 11.8881 13.824 12.1C14.1823 12.3931 14.631 12.5531 15.0939 12.5531C15.5568 12.5531 16.0054 12.3931 16.3638 12.1C16.6264 11.8881 16.8421 11.6239 16.9972 11.3242C17.1523 11.0245 17.2433 10.6959 17.2647 10.3591V8.71509H12.9231Z" fill="#342A35"/>
<path d="M17.8564 8.83224C17.5459 7.85767 16.6677 7.50676 16.207 7.36026C16.0852 7.32093 15.9559 7.31045 15.8294 7.32966C15.7028 7.34887 15.5825 7.39724 15.4778 7.47094C15.3353 7.57174 15.2064 7.69033 15.094 7.82382C14.9829 7.69196 14.8556 7.57464 14.7151 7.47465C14.608 7.39943 14.4848 7.35025 14.3553 7.33102C14.2259 7.3118 14.0937 7.32305 13.9693 7.36388C13.5236 7.50701 12.7423 7.83922 12.3424 8.70442C12.3072 8.78073 12.2841 8.86206 12.2739 8.94547C12.2654 9.01576 12.2772 9.08703 12.3079 9.15083C12.3386 9.21464 12.387 9.26831 12.4472 9.30549C12.5075 9.34268 12.5771 9.36182 12.6479 9.36066C12.7187 9.3595 12.7877 9.33808 12.8467 9.29893C12.9526 9.22401 13.073 9.17199 13.2001 9.14618C13.3272 9.12038 13.4583 9.12135 13.5851 9.14905C14.2018 9.30651 14.7262 9.35896 15.0939 8.92595C15.4614 9.35896 15.9859 9.30651 16.6026 9.14905C16.7251 9.12184 16.852 9.11992 16.9753 9.14341C17.0986 9.1669 17.2159 9.21531 17.3199 9.28567C17.3833 9.32418 17.4569 9.34269 17.5311 9.33879C17.6052 9.33488 17.6765 9.30875 17.7355 9.26378C17.7946 9.21882 17.8388 9.15711 17.8623 9.08669C17.8858 9.01627 17.8876 8.9404 17.8674 8.86896C17.8639 8.85665 17.8603 8.84441 17.8564 8.83224Z" fill="#342A35"/>
<path d="M2.04614 11.0273H3.47991V21.7266H2.04614V11.0273Z" fill="#FFB655"/>
<path d="M2.04614 22.7153H3.47991V26.353H2.04614V22.7153Z" fill="#F27B31"/>
<path d="M4.08775 19.4033H4.54893C4.63911 19.4033 4.72841 19.4211 4.81173 19.4556C4.89505 19.4901 4.97076 19.5407 5.03453 19.6045C5.0983 19.6682 5.14888 19.7439 5.18339 19.8273C5.21791 19.9106 5.23567 19.9999 5.23567 20.0901V21.0938C5.23567 21.2759 5.16332 21.4506 5.03453 21.5794C4.90574 21.7082 4.73106 21.7805 4.54893 21.7805H3.70679L4.08775 19.4033Z" fill="#EF837C"/>
<path d="M3.47537 23.5639H1.90539C1.66514 23.5639 1.43472 23.4684 1.26484 23.2985C1.09495 23.1287 0.999512 22.8982 0.999512 22.658V20.3094C0.999512 20.0692 1.09495 19.8388 1.26484 19.6689C1.43472 19.499 1.66514 19.4036 1.90539 19.4036H4.08775V20.4532C4.03619 20.5405 4.00899 20.6401 4.00899 20.7415C4.00899 20.8429 4.03619 20.9424 4.08775 21.0297V21.9595C4.04208 22.0487 4.01826 22.1475 4.01826 22.2477C4.01826 22.3479 4.04208 22.4467 4.08775 22.5359V22.9517C4.08764 23.114 4.02308 23.2697 3.90826 23.3845C3.79343 23.4993 3.63773 23.5638 3.47537 23.5639Z" fill="#FFCAC0"/>
<path d="M15.9687 24.2295H14.2092C13.8751 24.2295 13.6042 24.5003 13.6042 24.8345V25.748C13.6042 26.0821 13.8751 26.353 14.2092 26.353H15.9687C16.3028 26.353 16.5736 26.0821 16.5736 25.748V24.8345C16.5736 24.5003 16.3028 24.2295 15.9687 24.2295Z" fill="#FFB655"/>
<path d="M2.9513 8.66284H0.927309V9.64515C0.927309 9.64515 0.842733 10.5159 1.5382 10.5159V11.2287C1.53821 11.2657 1.54552 11.3024 1.5597 11.3366C1.57389 11.3708 1.59467 11.4018 1.62087 11.428C1.64706 11.4541 1.67815 11.4749 1.71237 11.489C1.74658 11.5032 1.78324 11.5104 1.82026 11.5104H2.76312L2.9513 8.66284Z" fill="#FFB655"/>
<path d="M0.309082 7.16159C0.30922 6.72938 0.42348 6.30486 0.640307 5.93097C0.857135 5.55708 1.16884 5.24707 1.54391 5.03229C1.91898 4.81751 2.34412 4.70557 2.77632 4.7078C3.20853 4.71002 3.63249 4.82633 4.00533 5.04496C4.60214 7.05009 1.92641 9.00531 0.309082 7.16159Z" fill="#655BAA"/>
<path d="M2.70763 10.4588V11.1976L3.98805 11.0753V10.516C4.68352 10.516 4.59886 9.64523 4.59886 9.64523V8.66284H1.4398L1.2998 9.13143L2.46098 9.97456C2.53739 10.0301 2.59957 10.1029 2.64244 10.1871C2.68531 10.2712 2.70764 10.3643 2.70763 10.4588Z" fill="#F27B31"/>
<path d="M4.00539 5.04541C3.91555 5.94009 3.31454 7.41503 0.317383 7.35286C0.350274 7.77342 0.491041 8.1784 0.726092 8.5287C0.961144 8.87899 1.28254 9.16277 1.65925 9.35263C2.03596 9.54249 2.45526 9.63202 2.87666 9.61257C3.29806 9.59312 3.70732 9.46535 4.06494 9.2416C4.42256 9.01785 4.71646 8.70568 4.91824 8.33522C5.12003 7.96477 5.2229 7.54854 5.21691 7.12674C5.21093 6.70493 5.09629 6.29179 4.88407 5.92721C4.67185 5.56263 4.36922 5.25892 4.00539 5.04541Z" fill="#3E3A6B"/>
<path d="M2.76311 8.01979H0.499224C0.366821 8.01979 0.239842 7.96719 0.146219 7.87357C0.0525966 7.77995 0 7.65297 0 7.52056V6.80245C0 6.67004 0.0525966 6.54306 0.146219 6.44944C0.239842 6.35582 0.366821 6.30322 0.499224 6.30322H2.76311C2.90912 6.89979 2.92781 7.47494 2.76311 8.01979Z" fill="#FFB655"/>
<path d="M4.08778 20.4531H2.21475C2.1383 20.4531 2.06499 20.4835 2.01094 20.5375C1.95688 20.5916 1.92651 20.6649 1.92651 20.7414C1.92651 20.8178 1.95688 20.8911 2.01094 20.9452C2.06499 20.9992 2.1383 21.0296 2.21475 21.0296H4.08778V20.4531ZM4.08778 21.9594H2.21475C2.1383 21.9594 2.06499 21.9897 2.01094 22.0438C1.95688 22.0978 1.92651 22.1711 1.92651 22.2476C1.92651 22.324 1.95688 22.3974 2.01094 22.4514C2.06499 22.5055 2.1383 22.5358 2.21475 22.5358H4.08778V21.9594Z" fill="#EF837C"/>
<path d="M22.4497 12.7499L21.9773 12.2977C20.7874 14.3705 19.2159 16.3049 17.5962 17.3909C16.999 17.8002 16.2802 17.9936 15.5583 17.9393L15.5296 17.9367C15.4857 17.9321 15.4415 17.9429 15.4047 17.9673C15.3679 17.9918 15.3408 18.0283 15.328 18.0705C15.3152 18.1128 15.3175 18.1582 15.3346 18.1989C15.3517 18.2397 15.3824 18.2732 15.4215 18.2937C15.7081 18.4451 16.1471 18.5474 16.8035 18.4377C18.2553 18.1948 21.3991 15.0772 22.4497 12.7499ZM12.653 12.3942C12.7421 14.0325 12.4166 15.6668 11.7066 17.1459C11.5831 17.3994 11.1724 17.277 11.2379 17.0028C11.5326 15.7691 12.0914 13.9857 11.5819 12.6907L12.4713 11.8589L12.653 12.3942ZM9.52343 15.7744C9.52351 15.7262 9.51403 15.6786 9.49556 15.6342C9.47709 15.5897 9.44999 15.5494 9.41582 15.5155C9.38166 15.4816 9.34111 15.4549 9.29653 15.4368C9.25194 15.4187 9.20421 15.4096 9.1561 15.4101C9.10798 15.4105 9.06044 15.4206 9.01623 15.4395C8.97201 15.4585 8.932 15.4861 8.8985 15.5206C8.86501 15.5552 8.83871 15.596 8.82112 15.6408C8.80352 15.6856 8.79499 15.7334 8.79601 15.7815C8.81133 16.5022 8.74429 18.0475 7.91335 18.3493C7.44345 18.5199 7.08982 18.3345 6.82967 18.0317C6.51249 18.2794 6.13386 18.4362 5.73438 18.4852C5.73438 18.4852 7.17308 19.5334 8.15053 19.1922C9.58874 18.6898 9.5231 17.0498 9.5231 17.0498L9.52343 15.7744ZM9.52393 13.1765L9.44207 14.2335C9.43618 14.3096 9.40176 14.3808 9.34568 14.4327C9.2896 14.4846 9.216 14.5135 9.13959 14.5135C9.06596 14.5136 8.99479 14.487 8.9394 14.4385C8.88402 14.39 8.8482 14.3229 8.83867 14.2499C8.75809 13.6362 8.74528 13.0155 8.80046 12.399L9.52393 13.1765Z" fill="#3E3A6B"/>
<path d="M14.3855 6.61776C14.3601 6.61776 14.3348 6.61438 14.3104 6.60771C14.2251 6.58566 14.1384 6.56948 14.0509 6.55928C13.9749 6.55132 13.9052 6.51349 13.857 6.4541C13.8089 6.3947 13.7863 6.31863 13.7943 6.2426C13.8023 6.16657 13.8401 6.09681 13.8995 6.04868C13.9589 6.00055 14.035 5.97798 14.111 5.98594C14.2288 5.99932 14.3456 6.02109 14.4603 6.05108C14.5279 6.06917 14.5866 6.11123 14.6255 6.1694C14.6643 6.22758 14.6807 6.29791 14.6716 6.36727C14.6624 6.43663 14.6283 6.50029 14.5757 6.54638C14.523 6.59247 14.4554 6.61784 14.3855 6.61776ZM15.8023 6.61776C15.7324 6.61782 15.6648 6.59243 15.6122 6.54634C15.5595 6.50025 15.5255 6.43658 15.5163 6.36723C15.5072 6.29787 15.5236 6.22755 15.5624 6.16939C15.6013 6.11122 15.66 6.06917 15.7276 6.05108C15.8423 6.02108 15.959 5.99931 16.0768 5.98594C16.1527 5.97827 16.2285 6.00099 16.2877 6.04912C16.3469 6.09726 16.3846 6.16688 16.3925 6.24274C16.4004 6.3186 16.378 6.39451 16.33 6.45384C16.2821 6.51318 16.2126 6.55109 16.1368 6.55928C16.0493 6.56951 15.9627 6.58569 15.8775 6.60771C15.853 6.61434 15.8277 6.61772 15.8023 6.61776Z" fill="#EF837C"/>
<path d="M18.6058 1.74654C18.6058 1.27425 18.3408 1.064 18.0579 0.883071C17.8276 1.19844 17.7012 1.57773 17.6963 1.96824C17.6964 2.10283 17.666 2.23569 17.6072 2.35677C17.5484 2.47786 17.4629 2.58399 17.3571 2.66714C17.2512 2.75029 17.1279 2.80829 16.9963 2.83674C16.8648 2.86519 16.7285 2.86335 16.5977 2.83137C16.467 2.79938 16.3453 2.73808 16.2417 2.6521C16.1382 2.56613 16.0555 2.45773 16 2.3351C15.9445 2.21248 15.9177 2.07885 15.9214 1.94431C15.9252 1.80977 15.9595 1.67785 16.0218 1.55853C16.0866 1.43672 16.114 1.29855 16.1009 1.16123C16.0877 1.02391 16.0344 0.893502 15.9477 0.786224C15.7033 0.483619 15.4156 0.218697 15.0939 0V2.95104C15.0934 2.99765 15.0771 3.04272 15.0476 3.0788C15.018 3.11487 14.9771 3.13979 14.9315 3.14942C14.7705 3.18622 14.6267 3.27657 14.5238 3.40571C14.4208 3.53484 14.3647 3.6951 14.3647 3.86025C14.3647 4.0254 14.4208 4.18566 14.5238 4.3148C14.6267 4.44393 14.7705 4.53429 14.9315 4.57108C14.9771 4.58073 15.018 4.60565 15.0475 4.64172C15.0771 4.67779 15.0934 4.72286 15.0939 4.76947V4.94818C16.5569 4.94818 17.4975 4.61876 18.0334 4.33802C18.2058 4.24817 18.3503 4.11281 18.4512 3.94664C18.5521 3.78047 18.6056 3.58983 18.6058 3.39541V1.74654Z" fill="#F27B31"/>
<path d="M13.0914 4.01197C13.2533 4.01197 13.3845 3.88075 13.3845 3.71888C13.3845 3.557 13.2533 3.42578 13.0914 3.42578C12.9296 3.42578 12.7983 3.557 12.7983 3.71888C12.7983 3.88075 12.9296 4.01197 13.0914 4.01197Z" fill="white"/>
<path d="M17.0963 4.01197C17.2582 4.01197 17.3894 3.88075 17.3894 3.71888C17.3894 3.557 17.2582 3.42578 17.0963 3.42578C16.9344 3.42578 16.8032 3.557 16.8032 3.71888C16.8032 3.88075 16.9344 4.01197 17.0963 4.01197Z" fill="#DAD0E2"/>
<path d="M1.53809 11.2286C1.5381 11.2657 1.5454 11.3023 1.55959 11.3365C1.57377 11.3707 1.59455 11.4018 1.62075 11.4279C1.64694 11.4541 1.67804 11.4748 1.71225 11.4889C1.74646 11.5031 1.78313 11.5103 1.82014 11.5103H3.70603C3.78083 11.5103 3.85258 11.4806 3.90547 11.4277C3.95837 11.3748 3.98809 11.303 3.98809 11.2282V10.5159H1.53809V11.2286Z" fill="#F27B31"/>
<path d="M3.47991 12.9923V11.0272H2.04614V12.4176L3.47991 12.9923ZM5.02699 6.30347H2.76303V8.0197H5.02699C5.15939 8.0197 5.28637 7.96711 5.37999 7.87348C5.47362 7.77986 5.52621 7.65288 5.52621 7.52048V6.80236C5.52613 6.67002 5.47349 6.54312 5.37988 6.44957C5.28626 6.35602 5.15934 6.30347 5.02699 6.30347Z" fill="#F27B31"/>
<path d="M2.76306 7.4546C2.92494 7.4546 3.05616 7.32337 3.05616 7.1615C3.05616 6.99963 2.92494 6.86841 2.76306 6.86841C2.60119 6.86841 2.46997 6.99963 2.46997 7.1615C2.46997 7.32337 2.60119 7.4546 2.76306 7.4546Z" fill="white"/>
<path d="M1.32727 7.4546C1.48915 7.4546 1.62037 7.32337 1.62037 7.1615C1.62037 6.99963 1.48915 6.86841 1.32727 6.86841C1.1654 6.86841 1.03418 6.99963 1.03418 7.1615C1.03418 7.32337 1.1654 7.4546 1.32727 7.4546Z" fill="white"/>
<path d="M4.19788 7.4546C4.35975 7.4546 4.49097 7.32337 4.49097 7.1615C4.49097 6.99963 4.35975 6.86841 4.19788 6.86841C4.03601 6.86841 3.90479 6.99963 3.90479 7.1615C3.90479 7.32337 4.03601 7.4546 4.19788 7.4546Z" fill="#DAD0E2"/>
<path d="M15.7033 24.5803H15.6422C15.5864 24.5803 15.5318 24.5963 15.4847 24.6263C15.4376 24.6562 15.4001 24.6991 15.3765 24.7496L14.9047 25.7626C14.8927 25.7882 14.8874 25.8165 14.8893 25.8447C14.8911 25.873 14.9 25.9003 14.9152 25.9241C14.9304 25.948 14.9514 25.9677 14.9762 25.9813C15.001 25.9949 15.0288 26.0021 15.0571 26.0021H15.7031C15.8105 26.0021 15.9136 25.9595 15.9895 25.8835C16.0655 25.8075 16.1082 25.7045 16.1082 25.5971V24.9853C16.1082 24.878 16.0655 24.775 15.9896 24.699C15.9137 24.6231 15.8107 24.5804 15.7033 24.5803Z" fill="#F27B31"/>
<path d="M15.0939 4.15333C15.2557 4.15333 15.387 4.0221 15.387 3.86023C15.387 3.69836 15.2557 3.56714 15.0939 3.56714C14.932 3.56714 14.8008 3.69836 14.8008 3.86023C14.8008 4.0221 14.932 4.15333 15.0939 4.15333Z" fill="white"/>
</svg>
