<svg width="21" height="25" viewBox="0 0 21 25" fill="none" xmlns="http://www.w3.org/2000/svg">
<path d="M13.2602 1.85574C13.9578 1.85574 14.423 1.39951 14.5578 1.12642L14.7034 0.831024L14.4016 0.68213C14.3269 0.64607 14.2421 0.637031 14.1615 0.656554C14.0809 0.676077 14.0095 0.722953 13.9596 0.789188C13.7874 1.01204 13.4655 1.28512 12.9729 1.1564C12.4336 1.01549 12.3048 0.641941 12.2854 0.376271C12.2799 0.293624 12.2461 0.215404 12.1896 0.154808C12.1331 0.0942125 12.0575 0.0549506 11.9754 0.0436471L11.6505 0L11.6067 0.326447C11.5556 0.706753 11.739 1.50245 12.7993 1.79233C12.9494 1.83393 13.1044 1.85526 13.2602 1.85574Z" fill="#5B6D7C"/>
<path d="M16.6724 16.681L16.1255 15.9976L13.6128 18.0084L14.1597 18.6918L16.6724 16.681Z" fill="#8294AF"/>
<path d="M16.3335 17.2094C16.8505 17.7974 18.0578 17.5814 19.03 16.7266C20.0023 15.8719 20.3713 14.7024 19.8544 14.1143L19.0638 13.2153L15.5429 16.3105L16.3335 17.2094Z" fill="#8294AF"/>
<path d="M15.5454 16.3062C15.0286 15.7179 15.398 14.5485 16.3705 13.6941C17.3431 12.8397 18.5504 12.624 19.0672 13.2122C19.584 13.8005 19.2145 14.97 18.242 15.8243C17.2695 16.6787 16.0622 16.8945 15.5454 16.3062Z" fill="#DAE5ED"/>
<path d="M16.0205 15.8887C15.6431 15.4592 15.9129 14.6052 16.623 13.9813C17.3332 13.3575 18.2148 13.1999 18.5921 13.6295C18.9695 14.059 18.6997 14.913 17.9896 15.5368C17.2794 16.1607 16.3978 16.3183 16.0205 15.8887Z" fill="white"/>
<path d="M12.3521 17.329L13.4573 17.2481C13.7689 17.2252 14.0769 17.3256 14.3151 17.5276C14.5534 17.7296 14.7028 18.0171 14.7313 18.3281C14.7581 18.6258 14.6723 18.9228 14.4907 19.1602C14.3092 19.3977 14.0452 19.5584 13.7508 19.6106C13.1936 19.7094 12.6259 19.7365 12.0618 19.6911L12.3521 17.329Z" fill="#FFCAC0"/>
<path d="M14.4192 19.245C14.2422 19.4364 14.0075 19.5648 13.7509 19.6107C13.1936 19.7095 12.626 19.7366 12.0618 19.6912L12.3521 17.3291L12.8714 17.291V18.6865C12.8714 18.6865 12.8439 19.5514 14.4192 19.245Z" fill="#EA8B88"/>
<path d="M8.35851 16.0168C8.35851 16.0168 8.83393 17.5953 12.3521 17.3291V20.733C12.3521 20.733 9.2144 21.3036 7.55977 19.6872L8.35851 16.0168Z" fill="#343C47"/>
<path d="M8.17106 8.25513C8.17106 8.25513 9.80066 9.50689 9.44144 12.9744C9.44144 12.9744 9.09696 14.7188 8.74375 16.116C8.11078 18.6195 8.47075 24.2821 8.47075 24.2821H0.0123577C0.0123577 24.2821 -0.6687 9.78986 8.17106 8.25513Z" fill="#5B6D7C"/>
<path d="M2.77583 11.9668L5.43196 13.2153C5.43196 13.2153 3.61484 15.5804 5.60754 17.3141L6.45058 16.0168C7.06436 16.6656 6.45058 17.881 6.45058 17.881L5.51431 19.706C4.94608 20.814 5.48475 22.1863 6.668 22.5746C7.23142 22.7455 7.81632 22.8352 8.40507 22.8411C8.43447 23.7058 8.47095 24.2817 8.47095 24.2817H0.0122299C0.0122299 24.2817 -0.34164 16.7457 2.77583 11.9668Z" fill="#343C47"/>
<path d="M4.38213 10.0757L8.9939 11.431C8.9939 11.431 7.79072 13.8708 4.23538 13.2913C3.42173 13.1587 2.8446 12.8758 2.43745 12.5186C2.95006 11.605 3.60673 10.7801 4.38213 10.0757Z" fill="#343C47"/>
<path d="M5.56372 12.2614C5.56372 12.2614 1.91697 15.3305 5.22072 17.9121L3.39784 21.0895C3.39784 21.0895 -2.70452 16.7206 2.66695 10.6011L5.56372 12.2614Z" fill="#5B6D7C"/>
<path d="M1.81411 11.6929C2.07638 11.3123 2.36111 10.9477 2.66679 10.6011L5.56372 12.2614C5.2026 12.5825 4.88035 12.9448 4.60357 13.341C4.48032 13.3276 4.35744 13.3111 4.23504 13.2915C2.85694 13.0667 2.15604 12.4113 1.81411 11.6929Z" fill="#343C47"/>
<path d="M9.30493 11.0246C9.30493 11.0246 8.49672 12.6062 5.6469 12.636C3.77048 12.6557 2.90965 11.8085 2.54054 11.2277C2.44598 11.0787 2.39657 10.9056 2.39826 10.7291C2.39996 10.5527 2.45269 10.3805 2.5501 10.2333C2.89936 9.70709 3.64004 8.84452 5.00537 8.2496C6.66198 7.52778 7.36305 6.72607 7.36305 6.72607C7.36305 6.72607 8.96432 7.86147 9.30493 11.0246Z" fill="#5B6D7C"/>
<path d="M15.2041 10.5217L14.4806 9.9059C14.4489 9.87898 14.4118 9.85913 14.3718 9.84767C14.3318 9.83622 14.2899 9.83344 14.2487 9.8395C14.2076 9.84557 14.1682 9.86034 14.1332 9.88284C14.0982 9.90534 14.0684 9.93505 14.0458 9.96997C13.9146 10.1711 13.6966 10.3995 13.3803 10.4069C13.3803 10.4069 12.8383 10.4466 12.8582 9.75932C12.8672 9.33812 12.7743 8.92098 12.5873 8.54346L12.0932 8.76136C12.0932 8.76136 12.3388 9.22921 12.1379 9.91793C11.9644 10.5122 11.9854 11.8671 13.2743 12.125C14.4726 12.3646 15.0729 11.5195 15.3122 11.0373C15.3543 10.9516 15.3664 10.8543 15.3468 10.7609C15.3272 10.6675 15.277 10.5833 15.2041 10.5217Z" fill="#D65B43"/>
<path d="M14.6802 6.23873C14.6802 6.23873 13.7084 8.25456 12.5071 9.07167C11.8108 9.54544 10.5239 9.68108 9.63466 9.17197L8.74319 7.62135L10.7971 4.23755L14.6802 6.23873Z" fill="#FFCAC0"/>
<path d="M11.9552 5.53115C11.9552 5.53115 11.0356 5.37204 10.3345 4.99989L10.7971 4.23755L13.36 5.55816L14.6802 6.23873C14.6802 6.23873 14.5307 6.54837 14.2775 6.97331C13.4288 6.62453 12.6441 6.13717 11.9552 5.53115Z" fill="#EA8B88"/>
<path d="M12.9763 4.96769C12.9763 4.96769 12.2808 6.43357 10.2691 6.4717C10.0121 6.47542 9.76345 6.5635 9.56139 6.72238L9.03696 7.13843C8.72316 6.52205 8.57253 5.83555 8.59943 5.14441C8.62633 4.45327 8.82987 3.78055 9.19064 3.19043L12.9763 4.96769Z" fill="#E87A5D"/>
<path d="M11.2166 11.7835C11.0601 10.9801 10.2668 7.44267 8.15536 5.88208L7.36304 6.72636C7.36304 6.72636 9.09056 9.3241 9.4413 12.974C9.4413 12.974 9.86179 12.4038 10.3035 12.2479C10.5917 12.1462 10.9052 12.0495 11.0884 11.9946C11.1322 11.9816 11.1696 11.9528 11.1933 11.9138C11.217 11.8748 11.2253 11.8283 11.2166 11.7835Z" fill="#5B6D7C"/>
<path d="M10.0854 11.5726C9.90345 11.5726 9.75597 11.4252 9.75597 11.2432C9.75597 11.0613 9.90345 10.9138 10.0854 10.9138C10.2673 10.9138 10.4148 11.0613 10.4148 11.2432C10.4148 11.4252 10.2673 11.5726 10.0854 11.5726Z" fill="#343C47"/>
<path d="M12.7756 7.34855C12.8275 7.34855 12.878 7.33224 12.9201 7.30192C12.9622 7.2716 12.9936 7.22881 13.01 7.17962C13.0264 7.13043 13.0269 7.07732 13.0115 7.02783C12.996 6.97833 12.9654 6.93496 12.9239 6.90385L12.7 6.73642C12.6475 6.6972 12.5816 6.68042 12.5167 6.6898C12.4519 6.69917 12.3934 6.73393 12.3542 6.78641C12.3149 6.83889 12.2982 6.90481 12.3075 6.96966C12.3169 7.03451 12.3517 7.09298 12.4042 7.13221L12.6281 7.29963C12.6707 7.33147 12.7225 7.34863 12.7756 7.34855Z" fill="#DD7A7A"/>
<path d="M12.9763 4.96769C12.8007 5.28974 12.5596 5.57151 12.2687 5.79492C12.2247 5.75984 12.1808 5.72416 12.1369 5.68787C12.0195 5.58911 11.8802 5.51977 11.7306 5.48561C11.6462 5.46669 11.5622 5.44632 11.4786 5.4245C10.7178 5.22296 9.91462 5.24824 9.16799 5.49722C8.98563 5.55864 8.79948 5.60816 8.61071 5.64545C8.53603 4.78612 8.73933 3.92552 9.19064 3.19043L12.9763 4.96769Z" fill="#AF4E3E"/>
<path d="M10.5244 4.06409C10.5244 4.06409 9.41265 5.19356 7.77168 5.11277C7.65467 5.10833 7.54182 5.06821 7.44825 4.9978C7.35469 4.92739 7.2849 4.83006 7.24823 4.71885C7.21157 4.60764 7.20979 4.48788 7.24313 4.37563C7.27648 4.26338 7.34335 4.16401 7.43478 4.09085C7.86467 3.7441 8.36426 3.49411 8.89951 3.35791L10.5244 4.06409Z" fill="#343C47"/>
<path d="M15.1516 5.14757C15.1516 5.14757 15.8521 1.92403 12.8993 1.12546C9.81205 0.290562 8.89909 3.35837 8.89909 3.35837C8.89909 3.35837 10.0214 4.58741 12.1981 5.14757C12.1981 5.14757 14.2389 5.71359 15.1516 5.14757Z" fill="#5B6D7C"/>
<path d="M15.1515 5.14771C15.1515 5.14771 14.0892 5.46641 12.1981 5.14771C12.1981 5.14771 14.1104 6.65658 16.0057 7.0186C16.1062 7.03723 16.21 7.02395 16.3026 6.98061C16.3952 6.93727 16.4719 6.86605 16.5219 6.77693C16.572 6.68781 16.5929 6.58525 16.5818 6.48364C16.5706 6.38203 16.528 6.28645 16.4598 6.21031C16.0795 5.79241 15.6385 5.43419 15.1515 5.14771Z" fill="#343C47"/>
<path d="M12.198 5.14765C10.0212 4.58748 8.89894 3.35845 8.89894 3.35845C9.10773 2.7411 9.4639 2.18398 9.93659 1.73535C9.91591 1.80276 9.8989 1.87124 9.88561 1.94049C9.72766 2.78469 10.1162 3.63276 10.8234 4.11988C12.3402 5.16453 14.8603 5.20966 14.8603 5.20966L14.9055 5.26426C13.9174 5.62398 12.198 5.14765 12.198 5.14765Z" fill="#343C47"/>
</svg>
