<svg width="26" height="27" viewBox="0 0 26 27" fill="none" xmlns="http://www.w3.org/2000/svg">
<path d="M20.363 4.29345C20.363 4.29345 21.3933 5.17891 22.5524 4.29345L21.7225 2.48169C21.1045 2.94226 20.6325 3.57133 20.363 4.29345Z" fill="#5B4977"/>
<path d="M23.3363 1.59173C23.3363 1.59173 23.9806 3.16591 22.991 4.47862C22.4999 4.60099 21.89 3.51756 21.3127 2.76436C21.3127 2.76436 22.4139 1.36889 23.3363 1.59173Z" fill="#FFE4FF"/>
<path d="M22.2804 3.44361C22.0638 2.55321 22.8579 1.72301 22.8579 1.72301L22.8054 1.61768C22.0387 1.84448 21.3127 2.76436 21.3127 2.76436L22.569 4.73185C22.5789 4.74726 22.5921 4.76022 22.6078 4.76977C22.6234 4.77931 22.641 4.78518 22.6592 4.78694C22.6775 4.7887 22.6959 4.7863 22.713 4.77993C22.7302 4.77355 22.7457 4.76337 22.7584 4.75013C22.8415 4.66449 22.9192 4.57372 22.991 4.47837C22.6265 4.2411 22.371 3.86899 22.2804 3.44361Z" fill="#5B4977"/>
<path d="M12.8402 16.0486C12.8402 16.0486 12.8402 16.6668 12.9114 17.3523C12.9837 18.0375 13.2832 18.6789 13.7621 19.1743C14.4621 19.9005 15.6397 21.0909 16.8321 22.1516C17.2898 22.555 17.8818 22.7727 18.4918 22.7618C20.0785 22.7406 23.2612 23.1362 23.3363 26.6394H25.9052C25.9052 26.6394 26.414 24.4799 25.0245 22.618C24.5024 21.9271 23.7779 21.4161 22.9518 21.1562C21.7392 20.7633 20.4725 20.563 19.1978 20.5625C18.6333 20.5692 18.0839 20.3808 17.6423 20.0291C17.0444 19.5562 16.4736 19.0501 15.9326 18.5131C15.4579 18.0298 15.1557 17.4036 15.0728 16.7313C15.0195 16.3058 14.9904 15.8223 15.0531 15.4396L13.1455 12.3647L9.23439 13.1134C9.23439 13.1134 8.29128 15.2217 9.23439 17.9124C9.34184 18.2322 9.43146 18.5578 9.50286 18.8875C9.6261 19.4603 9.57316 20.057 9.351 20.5992L8.95019 21.5755C8.70772 22.169 8.2742 22.6648 7.71827 22.9842C6.68812 23.5738 5.03225 24.7953 4.82397 26.6393H7.68105C7.68105 26.6393 8.02536 25.0005 9.50829 23.9413C9.90428 23.654 10.2061 23.2556 10.3756 22.7966L11.0517 21.0037C11.2512 20.476 11.2681 19.8967 11.0998 19.3582C10.9155 18.7704 10.6899 17.9545 10.6023 17.247C10.5432 16.7997 10.6418 16.3459 10.8814 15.9636C11.1345 15.5683 11.5783 15.1938 12.3412 15.2771L12.8402 16.0486Z" fill="#CE6581"/>
<path d="M25.9657 26.2463C25.8491 26.1356 25.7656 25.9946 25.7247 25.8391C25.6342 24.7949 25.2921 24.1053 24.9796 23.6809C24.9555 23.6485 24.9207 23.6256 24.8814 23.6162C24.842 23.6069 24.8007 23.6117 24.7645 23.6299C24.7284 23.648 24.6998 23.6783 24.6838 23.7154C24.6678 23.7526 24.6654 23.7942 24.677 23.8329C24.8057 24.2519 24.8819 24.6852 24.9038 25.1229C24.9058 25.1696 24.896 25.2159 24.8754 25.2578C24.8548 25.2996 24.824 25.3356 24.7859 25.3625C24.7477 25.3893 24.7034 25.4061 24.6571 25.4114C24.6107 25.4166 24.5638 25.4102 24.5206 25.3926C24.4704 25.3774 24.4241 25.3517 24.3849 25.317C24.3456 25.2824 24.3142 25.2397 24.2929 25.1918C23.4496 22.4459 20.7821 21.7989 19.3307 22.0537C17.8793 22.3085 17.5263 21.8967 17.5263 21.8967L14.5597 19.1312C13.6526 18.3466 13.4074 17.1233 13.4074 17.1233C13.3574 15.4516 14.6334 15.7048 15.0201 15.8193C15.0227 15.6922 15.0337 15.5653 15.053 15.4396L13.1454 12.3647L9.23439 13.1135C9.23439 13.1135 8.29128 15.2217 9.23439 17.9125C9.34183 18.2323 9.43146 18.5578 9.50286 18.8875C9.6261 19.4604 9.57316 20.0571 9.351 20.5993L8.95019 21.5756C8.70772 22.1691 8.2742 22.6648 7.71827 22.9842C6.68812 23.5739 5.03225 24.7953 4.82397 26.6394H7.68105C7.68105 26.6394 8.02536 25.0006 9.50829 23.9414C9.90428 23.6541 10.2061 23.2557 10.3756 22.7967L11.0517 21.0038C11.2512 20.4763 11.2681 19.8971 11.0999 19.3588C10.9154 18.77 10.6892 17.9521 10.6019 17.2436C10.5434 16.7975 10.6423 16.345 10.8814 15.9639C11.1345 15.5686 11.5784 15.1941 12.3412 15.2773L12.8404 16.0486C12.8404 16.0486 12.8404 16.6668 12.9116 17.3523C12.9839 18.0375 13.2833 18.6789 13.7622 19.1743C14.4622 19.9005 15.6399 21.0909 16.8323 22.1516C17.2899 22.555 17.8819 22.7727 18.4919 22.7618C20.0786 22.7406 23.2614 23.1362 23.3365 26.6394H25.9053C25.9327 26.5096 25.9529 26.3784 25.9657 26.2463Z" fill="#824561"/>
<path d="M13.2039 13.4627L12.1978 14.4773C12.0391 14.8957 11.9966 15.4414 12.2362 16.1326C12.257 16.1915 12.2956 16.2424 12.3466 16.2784C12.3977 16.3144 12.4586 16.3336 12.521 16.3334H12.5276C12.6059 16.3334 12.6814 16.3041 12.7393 16.2514C12.7972 16.1986 12.8333 16.1261 12.8405 16.0481C12.8836 15.6147 13.0914 14.8401 14.0264 14.8401C14.2378 14.8264 14.4484 14.8761 14.6313 14.9828C14.8143 15.0895 14.9612 15.2484 15.0533 15.4391C15.0836 15.4998 15.1263 15.5534 15.1786 15.5965C15.2309 15.6397 15.2917 15.6714 15.357 15.6895C15.4223 15.7077 15.4907 15.712 15.5577 15.7021C15.6248 15.6923 15.6891 15.6684 15.7464 15.6322C15.8141 15.5888 15.8699 15.5291 15.9086 15.4586C15.9473 15.3881 15.9677 15.3091 15.9679 15.2286C15.9747 14.8888 15.8958 14.5527 15.7384 14.2515C15.5811 13.9502 15.3503 13.6935 15.0674 13.505C15.0674 13.505 14.4898 13.3442 14.1146 13.248L13.2039 13.4627Z" fill="#5B4977"/>
<path d="M10.6995 12.8079L9.29451 14.5949C7.82122 16.2984 5.69569 19.0195 4.35334 21.9007C4.18532 22.2635 3.97821 22.6069 3.73569 22.9248C3.24873 23.5704 2.70808 24.1737 2.11951 24.7283C1.89521 24.9328 1.7125 25.1786 1.58142 25.4524L1.13375 26.3884C0.855808 26.9696 -0.0274277 26.7571 0.000654677 26.1135C0.00361938 26.044 0.0106194 25.9689 0.0221488 25.8877C0.0243723 25.8718 0.027337 25.8558 0.0307959 25.8401C0.110514 25.4794 1.11917 21.0774 3.74491 16.993C3.74491 16.993 4.63087 15.6883 5.13931 15.066L7.07683 12.944L10.6995 12.8079Z" fill="#FF4992"/>
<path d="M5.13935 15.0663C4.63845 15.6817 4.17295 16.325 3.74512 16.9933C6.29995 16.4004 8.32015 15.2354 9.29472 14.5955C10.2607 13.4787 10.9465 12.7988 10.9465 12.7988L7.07695 12.944L5.13935 15.0663Z" fill="#A81856"/>
<path d="M4.79415 13.0802L3.32736 13.6335C2.87377 13.8444 2.40127 14.0119 1.91616 14.1338C1.79834 14.1626 1.69048 14.2226 1.60401 14.3076C1.51755 14.3927 1.45569 14.4995 1.42501 14.6168L1.54261 15.1912C1.2274 15.243 0.9093 15.2754 0.590111 15.2881C-0.0407949 15.3124 -0.19356 16.1857 0.391476 16.4227C0.917958 16.6369 1.73383 16.6914 2.99893 16.3354C4.9674 15.7724 6.88747 15.0523 8.74066 14.1819C8.74066 14.1819 10.2985 13.1827 11.2121 12.6697L4.79415 13.0802Z" fill="#6BA5FE"/>
<path d="M14.1563 13.1135L13.2213 13.3476C12.7562 13.5901 12.3932 13.991 12.198 14.4778C13.2313 14.4553 14.2327 14.1161 15.067 13.506C14.7881 13.324 14.4801 13.1913 14.1563 13.1135Z" fill="#3A2556"/>
<path d="M11.3437 12.6121L4.60098 12.9029C4.20097 13.187 3.77446 13.4317 3.32739 13.6337C3.68892 13.7737 4.29916 13.8951 5.13916 13.6645C5.13916 13.6645 6.11446 14.7168 8.21043 14.0489C8.38195 14.1119 8.55967 14.1566 8.74062 14.1821C9.60047 13.7814 10.4476 13.3539 11.2808 12.9003L11.3437 12.6121Z" fill="#593B91"/>
<path d="M5.61924 10.3334L4.83137 10.9748C4.46004 11.3448 4.00281 11.8267 3.57351 12.3508C3.5062 12.4326 3.46179 12.5308 3.44478 12.6354C3.42778 12.74 3.43879 12.8472 3.4767 12.9461C3.51462 13.0451 3.57807 13.1322 3.66061 13.1986C3.74314 13.2651 3.84181 13.3084 3.94657 13.3243C4.30892 13.3751 4.80674 13.3729 5.47907 13.2414L5.96594 13.5978C6.3866 13.7925 7.10423 13.9249 8.2108 13.545L8.76726 13.7402C9.25907 13.8533 10.0043 13.8822 10.6998 13.3425L11.2643 13.536C12.2342 13.7877 14.285 13.9697 16.0703 11.8127C16.0703 11.8127 16.4084 11.241 16.616 10.9038L6.89521 9.82129L5.61924 10.3334Z" fill="#FFCA6E"/>
<path d="M23.3364 1.59166C23.3364 1.59166 23.1238 0.518351 21.6251 0.12001C21.3988 0.0599602 21.1671 0.0222 20.9334 0.00726903C20.4367 -0.0127427 20.1207 -0.000142752 19.6181 0.15814C19.4792 0.199547 19.3428 0.248706 19.2094 0.305387C18.2423 0.71387 17.4226 1.40722 16.8594 2.29314C16.5996 2.69536 16.2626 3.04203 15.8679 3.31308L13.8357 4.72025L18.2985 9.02195L19.2838 7.82026C19.6114 7.22267 19.8747 6.59203 20.0693 5.9389C20.2236 5.43774 20.4262 4.95273 20.6742 4.49073C20.8818 3.70903 21.4534 3.09073 22.1528 2.52949C22.508 2.17027 22.9055 1.85536 23.3364 1.59166Z" fill="#FF4992"/>
<path d="M17.4944 5.37573L17.3005 8.06044L18.2988 9.02265C18.2988 9.02265 18.7495 8.76546 19.2838 7.82071C19.2027 7.2998 18.9979 6.80592 18.6866 6.38051C18.3752 5.95509 17.9664 5.61053 17.4944 5.37573Z" fill="#A81856"/>
<path d="M16.7094 10.914L6.89515 9.82129L5.60007 10.2463C5.60007 10.2463 5.27749 10.5297 4.83105 10.9746C5.06988 11.3795 5.7334 11.9664 7.48167 11.2389C7.48167 11.2389 8.1213 12.1131 10.2781 11.4843C11.0754 11.8027 11.9605 11.8244 12.7724 11.5456C13.128 11.7158 13.5159 11.8079 13.91 11.8159C14.3041 11.8238 14.6953 11.7474 15.0575 11.5916C15.3772 11.7304 15.721 11.8053 16.0695 11.8122C16.3035 11.5281 16.5173 11.228 16.7094 10.914Z" fill="#E56443"/>
<path d="M21.0733 3.83744C21.3925 3.36953 21.7539 2.93181 22.1529 2.52975C22.1153 2.17075 22.0373 1.81714 21.9204 1.47564C21.8058 1.15136 21.5826 0.876693 21.2887 0.698188C20.9947 0.519682 20.648 0.448325 20.3075 0.496212L20.2838 0.499589C19.9168 0.549436 19.5817 0.734616 19.3443 1.0188C19.1068 1.30298 18.9841 1.66564 19.0002 2.03564C19.017 2.31656 19.0825 2.59243 19.1938 2.85093C19.6407 3.90991 20.0438 4.11579 20.6741 4.49074C20.7678 4.32834 20.9667 3.99226 21.0733 3.83744Z" fill="#FFE4FF"/>
<path d="M16.9527 5.04647C16.9527 5.04647 11.5637 2.33195 5.297 9.88553C5.22407 9.97265 5.17421 10.0767 5.152 10.1881C5.12978 10.2995 5.13593 10.4148 5.16988 10.5232C5.20383 10.6316 5.26448 10.7298 5.34627 10.8086C5.42806 10.8875 5.52836 10.9445 5.63795 10.9745C6.08158 11.0919 6.78306 11.0557 7.88173 10.5772C7.88173 10.5772 8.42642 11.5827 10.5422 10.8705C10.5422 10.8705 10.9822 11.7085 12.9305 10.9752C12.9305 10.9752 13.3285 11.7294 15.1301 11.0381C15.1301 11.0381 17.2911 12.3954 18.546 9.12418C18.9364 8.10662 18.826 6.95006 18.1847 6.06888C17.8641 5.63223 17.441 5.28112 16.9527 5.04647Z" fill="#FF4992"/>
<path d="M2.11915 24.7283C2.41438 24.4559 2.69523 24.1684 2.96055 23.8668C3.54962 22.0484 4.49898 19.6306 5.20261 17.8971C5.22116 17.8511 5.22148 17.7998 5.20351 17.7536C5.18553 17.7074 5.15062 17.6697 5.10587 17.6484C5.06112 17.627 5.00991 17.6235 4.96267 17.6386C4.91543 17.6537 4.87572 17.6862 4.85162 17.7295C2.74866 21.4822 1.58105 25.4524 1.58105 25.4524C1.71213 25.1786 1.89484 24.9328 2.11915 24.7283ZM17.025 9.12471C16.6042 9.27187 16.0104 9.37654 15.4356 9.12471C15.9985 8.84141 16.2976 8.32802 16.4536 7.91634C16.4662 7.88305 16.4672 7.84644 16.4562 7.81256C16.4452 7.77867 16.423 7.74954 16.3933 7.72998C16.3635 7.71041 16.328 7.70159 16.2925 7.70496C16.2571 7.70832 16.2238 7.72369 16.1983 7.74851C15.7136 8.20276 14.8198 8.83095 13.5857 8.82593C13.9684 8.55221 14.2788 8.18957 14.4901 7.76926C14.5137 7.72384 14.5208 7.67161 14.5101 7.62155C14.4993 7.57149 14.4715 7.52674 14.4313 7.49499C14.3912 7.46325 14.3412 7.44649 14.29 7.44761C14.2388 7.44873 14.1897 7.46765 14.1509 7.50112C13.5363 8.02669 12.4951 8.69293 11.1582 8.70347C11.6776 8.44595 12.0501 7.99408 12.29 7.54732C12.3109 7.50876 12.3174 7.46399 12.3082 7.42108C12.299 7.37818 12.2747 7.33999 12.2398 7.31341C12.2049 7.28684 12.1616 7.27363 12.1178 7.27619C12.074 7.27875 12.0326 7.2969 12.001 7.32735C11.5149 7.81156 10.9511 8.21083 10.3329 8.50854C10.0301 8.65002 9.23016 8.76968 8.68861 8.74037C8.57705 8.73345 8.46618 8.718 8.35697 8.69416C8.3166 8.68589 8.27461 8.69208 8.23834 8.71164C8.20207 8.7312 8.17383 8.76288 8.15856 8.80116C8.14329 8.83943 8.14196 8.88185 8.15481 8.92101C8.16765 8.96016 8.19386 8.99355 8.22883 9.01534C8.2565 9.03264 8.65608 9.23168 9.32157 9.23827C9.63563 9.24029 9.94841 9.19804 10.2507 9.11276C10.7229 9.3035 11.227 9.40323 11.7362 9.40668C12.0616 9.40801 12.3853 9.36083 12.6967 9.26668C13.1097 9.4223 13.547 9.50349 13.9883 9.50649C14.2031 9.50693 14.4173 9.4846 14.6273 9.43987C14.9458 9.66272 15.4339 9.92106 15.9697 9.8798C16.5582 9.83459 16.946 9.62871 17.1955 9.41286C17.2254 9.38668 17.2452 9.35088 17.2515 9.31164C17.2578 9.27241 17.2501 9.23221 17.2299 9.19802C17.2097 9.16382 17.1781 9.13777 17.1407 9.12438C17.1033 9.11099 17.0624 9.11111 17.025 9.12471ZM8.26004 10.9151C8.89268 10.5724 9.2323 10.1307 9.41438 9.74828C9.42967 9.71544 9.43273 9.67822 9.42303 9.64332C9.41333 9.60842 9.3915 9.57812 9.36145 9.55787C9.33141 9.53763 9.29514 9.52876 9.25915 9.53287C9.22316 9.53698 9.18981 9.55379 9.1651 9.58028C8.78524 9.96999 8.35333 10.3053 7.88163 10.5768L7.91004 10.6197C8.00434 10.742 8.12367 10.8427 8.26004 10.9151ZM10.8967 11.1552C11.0462 11.0686 11.1753 10.9507 11.2751 10.8096C11.3748 10.6685 11.443 10.5076 11.4749 10.3378C11.4792 10.316 11.476 10.2935 11.4659 10.2738C11.4558 10.2541 11.4392 10.2385 11.419 10.2294C11.3989 10.2203 11.3762 10.2183 11.3547 10.2238C11.3333 10.2293 11.3143 10.2419 11.3009 10.2595C11.0231 10.6384 10.5421 10.8704 10.5421 10.8704L10.5607 10.8992C10.6483 11.0126 10.7642 11.1009 10.8967 11.1552ZM13.5855 11.3152C13.9692 10.9813 14.2406 10.5372 14.3627 10.0434C14.3706 10.0095 14.3662 9.97398 14.3504 9.94309C14.3345 9.91219 14.3081 9.88795 14.276 9.87469C14.2439 9.86144 14.2081 9.86003 14.1751 9.87073C14.142 9.88142 14.1138 9.90353 14.0956 9.93308C13.808 10.379 13.4055 10.739 12.9304 10.9752C12.9304 10.9752 13.0757 11.249 13.5855 11.3152ZM16.2921 10.3911C16.3014 10.3645 16.3008 10.3355 16.2906 10.3093C16.2803 10.283 16.261 10.2613 16.2361 10.2481C16.2113 10.2349 16.1825 10.231 16.155 10.2371C16.1275 10.2432 16.1031 10.259 16.0862 10.2815C15.8272 10.601 15.5007 10.8594 15.1302 11.038C15.2884 11.1291 15.4583 11.1984 15.6351 11.2439C15.9459 11.0439 16.178 10.7427 16.2921 10.3911Z" fill="#A81856"/>
<path d="M5.9658 13.5972C6.30986 13.4367 6.58296 13.1553 6.73324 12.8066C6.74975 12.7706 6.75318 12.7298 6.74295 12.6915C6.73271 12.6532 6.70945 12.6196 6.67715 12.5966C6.64485 12.5735 6.60554 12.5624 6.56596 12.5652C6.52638 12.568 6.489 12.5844 6.46024 12.6118C6.17509 12.8808 5.84223 13.0942 5.47876 13.241C5.6115 13.3956 5.77818 13.5176 5.9658 13.5972ZM9.42454 12.7423C9.4302 12.7127 9.42506 12.6821 9.41005 12.656C9.39504 12.6299 9.37115 12.6101 9.34274 12.6001C9.31433 12.5901 9.28329 12.5907 9.25525 12.6017C9.22722 12.6127 9.20406 12.6333 9.19 12.66C8.87392 13.2825 8.21057 13.5447 8.21057 13.5447C8.38745 13.632 8.57428 13.6975 8.76695 13.7399C9.18785 13.4266 9.36409 13.0635 9.42454 12.7423ZM11.264 13.5355C11.5452 13.1769 11.7311 12.7529 11.8045 12.3031C11.8108 12.2659 11.8035 12.2277 11.7838 12.1955C11.7641 12.1633 11.7335 12.1393 11.6975 12.128C11.6615 12.1167 11.6226 12.1188 11.588 12.134C11.5535 12.1492 11.5256 12.1763 11.5095 12.2105C11.3114 12.6343 11.0368 13.018 10.6995 13.3423L10.7043 13.3446C10.8851 13.4241 11.0723 13.4879 11.264 13.5355Z" fill="#E56443"/>
<path d="M3.74312 14.4801C3.09459 14.5816 2.1239 14.6966 1.42604 14.6171C1.38202 14.7829 1.40541 14.9593 1.4911 15.1079C1.50675 15.1354 1.52393 15.1631 1.54265 15.1911C1.54265 15.1911 2.78239 15.0252 3.78693 14.6528C3.80793 14.6454 3.82537 14.6303 3.83586 14.6107C3.84635 14.591 3.84913 14.5681 3.84365 14.5465C3.83818 14.5249 3.82484 14.5061 3.80624 14.4938C3.78765 14.4816 3.76514 14.4766 3.74312 14.4801Z" fill="#593B91"/>
<path d="M20.6459 2.27712C20.8728 2.27712 21.0567 2.09321 21.0567 1.86634C21.0567 1.63948 20.8728 1.45557 20.6459 1.45557C20.419 1.45557 20.2351 1.63948 20.2351 1.86634C20.2351 2.09321 20.419 2.27712 20.6459 2.27712Z" fill="#3B3B59"/>
</svg>
