<svg width="32" height="32" viewBox="0 0 32 32" fill="none" xmlns="http://www.w3.org/2000/svg">
<path d="M9.33333 4H6.66667C5.19333 4 4 5.19333 4 6.66667V25.3333C4 26.8067 5.19333 28 6.66667 28H22.6667C24.14 28 25.3333 26.8067 25.3333 25.3333V24" stroke="#1A1A1A" stroke-width="1.5" stroke-linecap="round" stroke-linejoin="round"/>
<path fill-rule="evenodd" clip-rule="evenodd" d="M17.3333 22.6667L21.5333 22.148C21.828 22.112 22.1027 21.9773 22.3133 21.768L28.488 15.5933C29.6147 14.4667 29.6147 12.64 28.488 11.512V11.512C27.3613 10.3853 25.5347 10.3853 24.4067 11.512L18.3267 17.592C18.1227 17.796 17.9907 18.06 17.9493 18.3467L17.3333 22.6667Z" stroke="#1A1A1A" stroke-width="1.5" stroke-linecap="round" stroke-linejoin="round"/>
<path fill-rule="evenodd" clip-rule="evenodd" d="M18 6H11.3333C10.2293 6 9.33333 5.104 9.33333 4V4C9.33333 2.896 10.2293 2 11.3333 2H18C19.104 2 20 2.896 20 4V4C20 5.104 19.104 6 18 6Z" stroke="#1A1A1A" stroke-width="1.5" stroke-linecap="round" stroke-linejoin="round"/>
<path d="M9.33333 10.6667H17.3333" stroke="#1A1A1A" stroke-width="1.5" stroke-linecap="round" stroke-linejoin="round"/>
<path d="M9.33333 15.9999H14.6667" stroke="#1A1A1A" stroke-width="1.5" stroke-linecap="round" stroke-linejoin="round"/>
<path d="M20 4H22.6667C24.14 4 25.3333 5.19333 25.3333 6.66667" stroke="#1A1A1A" stroke-width="1.5" stroke-linecap="round" stroke-linejoin="round"/>
</svg>
