<svg width="23" height="26" viewBox="0 0 23 26" fill="none" xmlns="http://www.w3.org/2000/svg">
<path fill-rule="evenodd" clip-rule="evenodd" d="M19.4167 14.4167L21.6928 16.6928C21.9429 16.9429 22.0833 17.282 22.0833 17.6356V18.75C22.0833 19.4864 21.4864 20.0833 20.75 20.0833H2.08333C1.34695 20.0833 0.75 19.4864 0.75 18.75V17.6356C0.750001 17.282 0.890475 16.9429 1.14052 16.6928L3.41667 14.4167V8.75C3.41667 4.33172 6.99839 0.75 11.4167 0.75V0.75C13.5384 0.75 15.5732 1.59285 17.0735 3.09315C18.5738 4.59344 19.4167 6.62827 19.4167 8.75V14.4167Z" stroke="#1A1A1A" stroke-width="1.5" stroke-linecap="round" stroke-linejoin="round"/>
<path d="M7.41666 20.0834V20.4167C7.41666 22.6258 9.20752 24.4167 11.4167 24.4167C13.6258 24.4167 15.4167 22.6258 15.4167 20.4167V20.0834" stroke="#1A1A1A" stroke-width="1.5" stroke-linecap="round" stroke-linejoin="round"/>
</svg>
