<svg width="28" height="28" viewBox="0 0 28 28" fill="none" xmlns="http://www.w3.org/2000/svg">
<g clip-path="url(#clip0_2420_2123)">
<path d="M17.0985 13.1179C17.0985 13.1179 18.7703 17.0555 19.9109 20.4696L20.8484 24.2677C20.8484 24.2677 18.2577 23.8742 17.2219 22.1964C17.2219 22.1964 16.1154 15.1537 17.0985 13.1179Z" fill="url(#paint0_linear_2420_2123)"/>
<path d="M19.9108 20.4696C19.9108 20.4696 21.2924 19.7295 22.8219 17.3365C22.6088 17.1513 22.4194 16.9404 22.2581 16.7086C22.177 16.5936 22.1262 16.4601 22.1104 16.3203C22.0946 16.1805 22.1142 16.039 22.1675 15.9088L22.2793 15.6344C22.2793 15.6344 24.2529 16.6704 26.1278 15.0422L26.3553 15.4631C26.4433 15.6255 26.479 15.8111 26.4576 15.9946C26.4361 16.1781 26.3586 16.3505 26.2356 16.4883C25.9248 16.8359 25.4243 17.2485 24.7268 17.3799C24.7268 17.3799 24.1874 22.1734 21.1327 25.0717C21.1004 25.1019 21.0612 25.1238 21.0185 25.1354C20.9758 25.1471 20.9309 25.1482 20.8878 25.1386C20.8446 25.129 20.8043 25.1091 20.7706 25.0805C20.7368 25.0518 20.7106 25.0155 20.694 24.9744C20.3861 24.2194 19.74 22.3664 19.9108 20.4696Z" fill="url(#paint1_linear_2420_2123)"/>
<path d="M12.1194 10.4177L11.4277 10.6519L9.7168 11.6675V25.4788H16.3636C16.3636 25.4788 17.7493 13.05 12.1194 10.4177Z" fill="url(#paint2_linear_2420_2123)"/>
<path d="M11.2141 15.344C10.8286 12.754 10.9973 10.9077 10.9973 10.9077L9.71704 11.6677V25.4788H11.817C11.8026 21.9943 11.5088 17.3228 11.2141 15.344Z" fill="#C6AC9A"/>
<path d="M15.6339 15.1948L9.73623 22.9996L9.71704 23.0354V25.4788C12.8941 22.5574 15.0525 19.2903 15.7961 16.8903L15.8383 15.9318C15.7757 15.6832 15.7076 15.4375 15.6339 15.1948Z" fill="#C6AC9A"/>
<path d="M14.8873 13.7393C14.8873 13.7393 13.1326 18.3768 9.87378 21.7922V24.2677C9.87378 24.2677 14.606 19.5675 15.6083 15.8387L14.8873 13.7393Z" fill="url(#paint3_linear_2420_2123)"/>
<path d="M5.03177 20.0582L8.07504 17.4214L7.79883 12.2063C7.79883 12.2063 2.89373 15.6457 1.02366 20.2604C0.924109 20.5053 0.915451 20.7777 0.999246 21.0285C1.08304 21.2792 1.25376 21.4916 1.48055 21.6275C1.85271 21.8493 2.26346 21.9987 2.69114 22.0678L5.03177 20.0582Z" fill="url(#paint4_linear_2420_2123)"/>
<path d="M5.03169 20.0582L8.07496 17.4214L7.79875 12.2063C7.79875 12.2063 7.38155 12.4991 6.74463 13.0274C6.75287 13.9714 6.58684 16.6114 4.6611 18.7552C3.69306 19.8498 2.52769 20.7525 1.22583 21.4162C1.29961 21.4988 1.38536 21.5699 1.48022 21.6271C1.85238 21.8489 2.26312 21.9983 2.69081 22.0675L5.03169 20.0582Z" fill="#C6AC9A"/>
<path d="M1.85441 22.4845C2.26057 21.8318 3.29171 20.4723 5.03183 20.0581C5.03183 20.0581 7.36555 21.7605 8.07971 23.7164L7.68146 27.0352H5.81954C5.72435 27.0352 5.63027 27.0148 5.54367 26.9753C5.45706 26.9358 5.37995 26.8781 5.31755 26.8062C5.25515 26.7344 5.20891 26.6499 5.18197 26.5586C5.15502 26.4673 5.148 26.3713 5.16137 26.2771L5.18517 26.1092C5.20553 25.9656 5.25579 25.8278 5.33272 25.7049C5.40965 25.5819 5.51153 25.4764 5.63177 25.3952L6.11362 25.0699C6.11362 25.0699 4.23951 23.2944 2.03904 22.8948C1.99531 22.8872 1.9541 22.869 1.91904 22.8417C1.88397 22.8145 1.85611 22.7791 1.83789 22.7386C1.81968 22.6981 1.81166 22.6538 1.81454 22.6095C1.81742 22.5652 1.8311 22.5223 1.85441 22.4845Z" fill="url(#paint5_linear_2420_2123)"/>
<path d="M12.894 25.0703H16.1159V27.0356H12.894V25.0703Z" fill="url(#paint6_linear_2420_2123)"/>
<path d="M10.3088 23.9221H11.4129C11.6003 23.9221 11.78 23.9966 11.9125 24.1291C12.045 24.2616 12.1194 24.4413 12.1194 24.6287V27.0356H10.3088V23.9221Z" fill="url(#paint7_linear_2420_2123)"/>
<path d="M13.3779 27.0356H12.1193V24.5515C12.1193 24.3846 12.1856 24.2245 12.3036 24.1065C12.4216 23.9885 12.5817 23.9222 12.7486 23.9222C12.9155 23.9222 13.0755 23.9885 13.1935 24.1065C13.3116 24.2245 13.3778 24.3846 13.3778 24.5515L13.3779 27.0356Z" fill="url(#paint8_linear_2420_2123)"/>
<path d="M13.7994 12.3566C13.7994 12.3566 15.7961 15.3771 15.7961 21.4712V27.0356H17.8384C17.8384 27.0356 16.8221 15.8454 18.0871 10.6821C18.094 10.6544 18.0936 10.6255 18.0861 10.598C18.0786 10.5705 18.0642 10.5454 18.0443 10.525C18.0244 10.5047 17.9997 10.4897 17.9724 10.4816C17.9451 10.4734 17.9161 10.4724 17.8883 10.4786C17.1315 10.644 14.9455 11.0741 13.6792 10.8286L13.7994 12.3566Z" fill="url(#paint9_linear_2420_2123)"/>
<path d="M11.428 7.86549V10.6521C11.428 10.6521 12.095 11.8674 13.7997 12.3568V9.39207L12.1839 7.36157L11.428 7.86549Z" fill="url(#paint10_linear_2420_2123)"/>
<path d="M11.4278 10.6522C11.4278 10.6522 8.90522 10.7715 7.13842 10.1784C7.11079 10.1687 7.08112 10.1664 7.05233 10.1717C7.02355 10.1771 6.99666 10.1898 6.97433 10.2088C6.95201 10.2277 6.93502 10.2521 6.92506 10.2797C6.9151 10.3072 6.91251 10.3368 6.91754 10.3657C7.14294 11.6464 7.98813 17.2033 7.68096 27.0356H10.6219C10.6219 27.0356 10.7942 19.0866 10.463 14.3615C10.4633 14.3615 10.1842 11.2926 11.4278 10.6522Z" fill="url(#paint11_linear_2420_2123)"/>
<path d="M24.4301 8.97758V6.80247H24.4795C24.6529 6.80471 24.8208 6.74131 24.9494 6.62499C25.078 6.50866 25.1578 6.34802 25.1729 6.17527C25.179 6.08348 25.1662 5.99142 25.1353 5.90479C25.1044 5.81815 25.056 5.73879 24.9931 5.67162C24.9303 5.60445 24.8543 5.55091 24.7699 5.5143C24.6855 5.47769 24.5945 5.4588 24.5025 5.4588H23.0374C22.8641 5.45654 22.6962 5.51992 22.5676 5.63623C22.439 5.75254 22.3592 5.91318 22.344 6.08592C22.3379 6.1777 22.3507 6.26975 22.3817 6.35638C22.4126 6.44301 22.461 6.52237 22.5238 6.58953C22.5867 6.6567 22.6626 6.71025 22.747 6.74686C22.8314 6.78348 22.9224 6.80238 23.0144 6.80239H23.0864V8.97716C23.0863 9.10357 23.0468 9.2268 22.9734 9.3297C22.9 9.43261 22.7964 9.51008 22.6769 9.55133C21.9399 9.80702 21.3173 10.3156 20.9197 10.9868C20.5221 11.658 20.3752 12.4484 20.505 13.2176C20.6349 13.9869 21.0332 14.6852 21.6291 15.1887C22.225 15.6921 22.9801 15.9681 23.7602 15.9677C24.5403 15.9672 25.295 15.6904 25.8904 15.1862C26.4857 14.6821 26.8832 13.9833 27.0122 13.2139C27.1412 12.4445 26.9934 11.6543 26.595 10.9836C26.1966 10.3128 25.5734 9.80495 24.8361 9.55009C24.7174 9.50867 24.6144 9.43128 24.5417 9.32868C24.4689 9.22607 24.4299 9.10336 24.4301 8.97758Z" fill="url(#paint12_radial_2420_2123)"/>
<path d="M21.5695 11.8859C21.5341 11.8682 21.4951 11.8591 21.4555 11.8594C21.4159 11.8597 21.377 11.8694 21.3419 11.8876C21.3069 11.9059 21.2766 11.9322 21.2537 11.9645C21.2308 11.9967 21.2158 12.034 21.2101 12.0731C21.1645 12.3395 21.152 12.6106 21.173 12.8802C21.2239 13.232 21.3461 13.5698 21.5321 13.8728C21.7181 14.1758 21.964 14.4376 22.2548 14.6422C22.5456 14.8468 22.875 14.9899 23.223 15.0627C23.571 15.1355 23.9302 15.1365 24.2786 15.0656C24.627 14.9948 24.9573 14.8535 25.2492 14.6505C25.541 14.4475 25.7884 14.1871 25.9761 13.8852C26.1638 13.5832 26.2879 13.2461 26.3408 12.8946C26.3937 12.543 26.3742 12.1843 26.2836 11.8405C26.2397 11.6763 26.1375 11.5336 25.9961 11.4392C25.8547 11.3447 25.6837 11.305 25.5152 11.3274C25.1222 11.3861 24.7418 11.5101 24.3897 11.6941C23.0084 12.3927 22.0294 12.1134 21.5695 11.8859Z" fill="url(#paint13_linear_2420_2123)"/>
<path d="M23.3768 11.2154C23.5467 11.2154 23.6844 11.0777 23.6844 10.9078C23.6844 10.7378 23.5467 10.6001 23.3768 10.6001C23.2068 10.6001 23.0691 10.7378 23.0691 10.9078C23.0691 11.0777 23.2068 11.2154 23.3768 11.2154Z" fill="#C64076"/>
<path d="M24.7378 13.2994C24.9078 13.2994 25.0455 13.1617 25.0455 12.9918C25.0455 12.8218 24.9078 12.6841 24.7378 12.6841C24.5679 12.6841 24.4302 12.8218 24.4302 12.9918C24.4302 13.1617 24.5679 13.2994 24.7378 13.2994Z" fill="#EDEDED"/>
<path d="M23.1729 13.774C23.3428 13.774 23.4806 13.6363 23.4806 13.4664C23.4806 13.2964 23.3428 13.1587 23.1729 13.1587C23.003 13.1587 22.8652 13.2964 22.8652 13.4664C22.8652 13.6363 23.003 13.774 23.1729 13.774Z" fill="#EDEDED"/>
<path d="M11.428 7.86549V10.3463L13.7995 9.98509V9.39215L12.1839 7.36157L11.428 7.86549Z" fill="#D57370"/>
<path d="M15.6082 3.97313C15.6082 3.97313 15.8414 1.49505 14.2146 1.04384L14.0128 1.66148C14.0128 1.66148 12.5642 0.296071 10.1064 1.3884C10.1064 1.3884 8.51532 2.10084 7.54175 1.95836C7.54175 1.95836 7.99296 3.05069 9.03777 3.41881C8.62565 3.70633 8.27122 4.06874 7.99296 4.48718L9.26342 4.96211C9.26342 4.96211 8.87949 5.48966 8.53517 6.83152C8.53517 6.83152 9.77392 7.51505 11.1038 7.15879H13.5379L15.6082 3.97313Z" fill="url(#paint14_linear_2420_2123)"/>
<path d="M11.7776 5.30169L11.8435 6.58286C11.7699 6.50454 11.6806 6.44256 11.5815 6.40094C11.467 6.35274 11.3416 6.33634 11.2185 6.35348C11.0955 6.37062 10.9793 6.42067 10.8823 6.49833C10.7853 6.576 10.7111 6.6784 10.6675 6.79474C10.6239 6.91108 10.6124 7.03704 10.6344 7.15933C10.6648 7.31249 10.7246 7.4583 10.8106 7.58863C10.8106 7.58863 11.0689 8.20027 12.0067 7.91483L12.1108 8.29366C12.1835 8.56307 12.3416 8.80168 12.5613 8.97373C12.8796 9.22079 13.4465 9.54822 14.4102 9.81167C14.5211 9.84237 14.6372 9.84967 14.751 9.83311C14.8649 9.81655 14.974 9.77649 15.0715 9.71548L15.0836 9.70766C15.2461 9.60066 15.3792 9.45476 15.4709 9.28322C15.5625 9.11167 15.6099 8.91993 15.6086 8.72543V3.97318C15.6086 3.97318 14.7578 2.83308 12.8784 3.57516C12.5374 3.71173 12.2479 3.95175 12.0504 4.26145C11.853 4.57114 11.7575 4.93495 11.7776 5.30169Z" fill="url(#paint15_linear_2420_2123)"/>
<path d="M23.0864 6.80273H24.4302V7.54712H23.0864V6.80273Z" fill="#7F91AC"/>
<path d="M14.9786 6.93317C14.9786 6.93317 15.1074 7.52372 15.6083 7.59973V5.83491C15.471 5.94009 15.3716 6.08706 15.325 6.25367H14.4003C14.2685 5.96231 14.0085 5.76343 13.7085 5.76343C13.4085 5.76343 13.1472 5.96206 13.0153 6.25367H12.894V6.69533C12.894 7.20493 13.2748 7.60945 13.7083 7.60945C14.5301 7.60945 14.713 6.93416 14.713 6.93416L14.9786 6.93317Z" fill="#D57370"/>
<path d="M15.4975 6.50071H14.312C14.2465 6.50071 14.1836 6.47468 14.1373 6.42835C14.091 6.38202 14.0649 6.31917 14.0649 6.25365C14.0649 6.18813 14.091 6.12529 14.1373 6.07895C14.1836 6.03262 14.2465 6.00659 14.312 6.00659H15.4975C15.563 6.00659 15.6258 6.03262 15.6722 6.07895C15.7185 6.12529 15.7445 6.18813 15.7445 6.25365C15.7445 6.31917 15.7185 6.38202 15.6722 6.42835C15.6258 6.47468 15.563 6.50071 15.4975 6.50071Z" fill="url(#paint16_radial_2420_2123)"/>
<path d="M13.6789 7.32762C14.1835 7.32762 14.5925 6.84679 14.5925 6.25365C14.5925 5.66052 14.1835 5.17969 13.6789 5.17969C13.1744 5.17969 12.7654 5.66052 12.7654 6.25365C12.7654 6.84679 13.1744 7.32762 13.6789 7.32762Z" fill="url(#paint17_linear_2420_2123)"/>
<path d="M15.7961 7.32762C16.1609 7.32762 16.4566 6.84679 16.4566 6.25365C16.4566 5.66052 16.1609 5.17969 15.7961 5.17969C15.4312 5.17969 15.1355 5.66052 15.1355 6.25365C15.1355 6.84679 15.4312 7.32762 15.7961 7.32762Z" fill="url(#paint18_linear_2420_2123)"/>
</g>
<defs>
<linearGradient id="paint0_linear_2420_2123" x1="20.3247" y1="24.4292" x2="16.5876" y2="16.4319" gradientUnits="userSpaceOnUse">
<stop stop-color="#EDE5DC"/>
<stop offset="1" stop-color="#DDC1BA"/>
</linearGradient>
<linearGradient id="paint1_linear_2420_2123" x1="21.1926" y1="23.155" x2="25.2907" y2="13.1145" gradientUnits="userSpaceOnUse">
<stop stop-color="#D0696F"/>
<stop offset="1" stop-color="#953939"/>
</linearGradient>
<linearGradient id="paint2_linear_2420_2123" x1="20.3247" y1="24.4292" x2="16.5876" y2="16.4319" gradientUnits="userSpaceOnUse">
<stop stop-color="#EDE5DC"/>
<stop offset="1" stop-color="#DDC1BA"/>
</linearGradient>
<linearGradient id="paint3_linear_2420_2123" x1="14.7085" y1="16.1085" x2="9.16332" y2="23.9683" gradientUnits="userSpaceOnUse">
<stop stop-color="#535365"/>
<stop offset="1" stop-color="#39394C"/>
</linearGradient>
<linearGradient id="paint4_linear_2420_2123" x1="20.3246" y1="24.4293" x2="16.5875" y2="16.432" gradientUnits="userSpaceOnUse">
<stop stop-color="#EDE5DC"/>
<stop offset="1" stop-color="#DDC1BA"/>
</linearGradient>
<linearGradient id="paint5_linear_2420_2123" x1="21.1926" y1="23.1549" x2="25.2907" y2="13.1144" gradientUnits="userSpaceOnUse">
<stop stop-color="#D0696F"/>
<stop offset="1" stop-color="#953939"/>
</linearGradient>
<linearGradient id="paint6_linear_2420_2123" x1="14.7084" y1="16.1085" x2="9.16329" y2="23.9684" gradientUnits="userSpaceOnUse">
<stop stop-color="#535365"/>
<stop offset="1" stop-color="#39394C"/>
</linearGradient>
<linearGradient id="paint7_linear_2420_2123" x1="11.2141" y1="23.5652" x2="11.2141" y2="27.0922" gradientUnits="userSpaceOnUse">
<stop stop-color="#E55F96"/>
<stop offset="1" stop-color="#AF3566"/>
</linearGradient>
<linearGradient id="paint8_linear_2420_2123" x1="14.2832" y1="27.3926" x2="14.2832" y2="23.8656" gradientUnits="userSpaceOnUse">
<stop stop-color="#E55F96"/>
<stop offset="1" stop-color="#AF3566"/>
</linearGradient>
<linearGradient id="paint9_linear_2420_2123" x1="16.0519" y1="10.8664" x2="15.4763" y2="26.6935" gradientUnits="userSpaceOnUse">
<stop stop-color="#E9897D"/>
<stop offset="1" stop-color="#B9564F"/>
</linearGradient>
<linearGradient id="paint10_linear_2420_2123" x1="12.5901" y1="9.58626" x2="12.7861" y2="13.2099" gradientUnits="userSpaceOnUse">
<stop stop-color="#EDCFC9"/>
<stop offset="1" stop-color="#ECA397"/>
</linearGradient>
<linearGradient id="paint11_linear_2420_2123" x1="16.0517" y1="10.8665" x2="15.4762" y2="26.6935" gradientUnits="userSpaceOnUse">
<stop stop-color="#E9897D"/>
<stop offset="1" stop-color="#B9564F"/>
</linearGradient>
<radialGradient id="paint12_radial_2420_2123" cx="0" cy="0" r="1" gradientUnits="userSpaceOnUse" gradientTransform="translate(23.985 12.6542) scale(5.00533)">
<stop stop-color="#EDEDED"/>
<stop offset="1" stop-color="#C2D0ED"/>
</radialGradient>
<linearGradient id="paint13_linear_2420_2123" x1="11.2141" y1="23.5651" x2="11.2141" y2="27.0921" gradientUnits="userSpaceOnUse">
<stop stop-color="#E55F96"/>
<stop offset="1" stop-color="#AF3566"/>
</linearGradient>
<linearGradient id="paint14_linear_2420_2123" x1="14.7083" y1="16.1085" x2="9.1632" y2="23.9683" gradientUnits="userSpaceOnUse">
<stop stop-color="#535365"/>
<stop offset="1" stop-color="#39394C"/>
</linearGradient>
<linearGradient id="paint15_linear_2420_2123" x1="12.5902" y1="9.58635" x2="12.7861" y2="13.21" gradientUnits="userSpaceOnUse">
<stop stop-color="#EDCFC9"/>
<stop offset="1" stop-color="#ECA397"/>
</linearGradient>
<radialGradient id="paint16_radial_2420_2123" cx="0" cy="0" r="1" gradientUnits="userSpaceOnUse" gradientTransform="translate(23.9851 12.6541) scale(5.00533)">
<stop stop-color="#EDEDED"/>
<stop offset="1" stop-color="#C2D0ED"/>
</radialGradient>
<linearGradient id="paint17_linear_2420_2123" x1="13.6789" y1="5.57177" x2="13.6789" y2="7.07619" gradientUnits="userSpaceOnUse">
<stop stop-color="#EDEDED"/>
<stop offset="1" stop-color="#C2D0ED"/>
</linearGradient>
<linearGradient id="paint18_linear_2420_2123" x1="15.7961" y1="5.57177" x2="15.7961" y2="7.07619" gradientUnits="userSpaceOnUse">
<stop stop-color="#EDEDED"/>
<stop offset="1" stop-color="#C2D0ED"/>
</linearGradient>
<clipPath id="clip0_2420_2123">
<rect width="28" height="28" fill="white"/>
</clipPath>
</defs>
</svg>
