<svg width="32" height="32" viewBox="0 0 32 32" fill="none" xmlns="http://www.w3.org/2000/svg">
<path d="M21.3333 4V14.32" stroke="#1A1A1A" stroke-width="1.5" stroke-linecap="round" stroke-linejoin="round"/>
<path d="M10.6667 14.32V4" stroke="#1A1A1A" stroke-width="1.5" stroke-linecap="round" stroke-linejoin="round"/>
<path d="M15.9987 25.7679L20.0093 27.8759C20.7907 28.2866 21.7027 27.6226 21.5533 26.7533L20.7867 22.2879L24.032 19.1266C24.664 18.5106 24.316 17.4373 23.4427 17.3106L18.9587 16.6586L16.9533 12.5933C16.5627 11.8013 15.4347 11.8013 15.044 12.5933L13.04 16.6586L8.55599 17.3106C7.68265 17.4373 7.33465 18.5106 7.96665 19.1266L11.212 22.2879L10.4453 26.7533C10.296 27.6226 11.208 28.2853 11.9893 27.8759L16 25.7679" stroke="#1A1A1A" stroke-width="1.5" stroke-linecap="round" stroke-linejoin="round"/>
<path d="M13.416 15.896L8.00666 12.7947C7.17866 12.32 6.66666 11.4373 6.66666 10.4813V6.66667C6.66666 5.19333 7.85999 4 9.33332 4H22.6667C24.14 4 25.3333 5.19333 25.3333 6.66667V10.4813C25.3333 11.4373 24.8227 12.32 23.9933 12.7947L18.584 15.896" stroke="#1A1A1A" stroke-width="1.5" stroke-linecap="round" stroke-linejoin="round"/>
</svg>
