<svg width="108" height="106" viewBox="0 0 108 106" fill="none" xmlns="http://www.w3.org/2000/svg">
<path fill-rule="evenodd" clip-rule="evenodd" d="M53.77 13.5145C41.19 0.934532 21.6 -0.355467 7.58 9.63453C4.66 11.7245 3 15.1745 3 18.7645V91.8445C3 96.2145 7.65 98.7445 11.51 96.6945C25.09 89.4545 42.33 91.5545 53.77 103.005V13.5145C66.35 0.934532 85.94 -0.355467 99.96 9.63453C102.88 11.7145 104.54 15.1645 104.54 18.7545V91.8345C104.54 96.2045 99.89 98.7345 96.03 96.6845C82.45 89.4545 65.21 91.5545 53.77 103.005" fill="#167C80"/>
<path d="M53.77 13.5145C41.19 0.934532 21.6 -0.355467 7.58 9.63453C4.66 11.7245 3 15.1745 3 18.7645V91.8445C3 96.2145 7.65 98.7445 11.51 96.6945C25.09 89.4545 42.33 91.5545 53.77 103.005V13.5145C66.35 0.934532 85.94 -0.355467 99.96 9.63453C102.88 11.7145 104.54 15.1645 104.54 18.7545V91.8345C104.54 96.2045 99.89 98.7345 96.03 96.6845C82.45 89.4545 65.21 91.5545 53.77 103.005" stroke="#FAFAFA" stroke-width="6" stroke-linecap="round" stroke-linejoin="round"/>
</svg>
